SplineFontDB: 3.0
FontName: Bodoni-24-Bold
FullName: Bodoni* 24 Bold
FamilyName: Bodoni* 24
Weight: Bold
Copyright: Copyright (c) 2020, indestructible type* (https://github.com/indestructible-type)
Version: 002.1
ItalicAngle: 0
UnderlinePosition: -200
UnderlineWidth: 0
Ascent: 1600
Descent: 400
InvalidEm: 0
LayerCount: 2
Layer: 0 0 "Back" 1
Layer: 1 0 "Fore" 0
PreferredKerning: 4
XUID: [1021 31 -699969567 16487490]
FSType: 0
OS2Version: 0
OS2_WeightWidthSlopeOnly: 0
OS2_UseTypoMetrics: 1
CreationTime: 1460762150
ModificationTime: 1580247562
PfmFamily: 17
TTFWeight: 700
TTFWidth: 5
LineGap: 0
VLineGap: 0
OS2TypoAscent: 2000
OS2TypoAOffset: 0
OS2TypoDescent: -800
OS2TypoDOffset: 0
OS2TypoLinegap: 0
OS2WinAscent: 2000
OS2WinAOffset: 0
OS2WinDescent: 800
OS2WinDOffset: 0
HheadAscent: 2000
HheadAOffset: 0
HheadDescent: -800
HheadDOffset: 0
OS2CapHeight: 1500
OS2XHeight: 920
OS2FamilyClass: 768
OS2Vendor: 'it* '
OS2UnicodeRanges: 00000001.00000000.00000000.00000000
Lookup: 1 0 0 "'ss02' Style Set 2 lookup 4" { "'ss02' Style Set 2 lookup 4-1"  } ['ss02' ('DFLT' <'dflt' > 'grek' <'dflt' > 'latn' <'dflt' > ) ]
Lookup: 1 0 0 "'ss03' Style Set 3 lookup 5" { "'ss03' Style Set 3 lookup 5-1"  } ['ss03' ('DFLT' <'dflt' > 'grek' <'dflt' > 'latn' <'dflt' > ) ]
Lookup: 1 0 0 "'ss01' Style Set 1 lookup 2" { "'ss01' Style Set 1 lookup 2-1"  } ['ss01' ('DFLT' <'dflt' > 'grek' <'dflt' > 'latn' <'dflt' > ) ]
Lookup: 5 0 0 "'calt' Contextual Alternates lookup 3" { "'calt' Contextual Alternates lookup 3-1"  } ['calt' ('DFLT' <'dflt' > 'grek' <'dflt' > 'latn' <'dflt' > ) ]
Lookup: 4 0 1 "'liga' Standard Ligatures lookup 0" { "'liga' Standard Ligatures lookup 0-1"  } ['liga' ('DFLT' <'dflt' > 'grek' <'dflt' > 'latn' <'dflt' > ) ]
Lookup: 258 0 0 "'kern' Horizontal Kerning lookup 0" { "kerning like they all do" [150,0,6] } ['kern' ('DFLT' <'dflt' > 'grek' <'dflt' > 'latn' <'dflt' > ) ]
MarkAttachClasses: 1
DEI: 91125
KernClass2: 31 27 "kerning like they all do"

StartChar: ampersand
Encoding: 38 38 0
GlifName: ampersand
Width: 1722
Flags: HMW
LayerCount: 2
Fore
SplineSet
807 931 m 9
 798 943 l 1
 855 982 932 1047 932 1275 c 0
 932 1386 905 1504 793 1504 c 0
 684 1504 643 1404 643 1310 c 0
 643 1230 702 1108 788 980 c 2
 1418 18 l 1
 1668 18 l 1
 1668 0 l 1
 1080 0 l 1
 418 980 l 2
 366 1056 326 1156 326 1226 c 0
 326 1406 516 1520 798 1520 c 0
 1062 1520 1232 1424 1232 1274 c 0
 1232 1088 1034 1013 807 931 c 9
540 826 m 1
 548 813 l 1
 452 760 399 671 399 509 c 0
 399 285 518 44 738 44 c 0
 1081 44 1384 467 1425 916 c 1
 1443 916 l 1
 1399 472 1104 -20 568 -20 c 0
 252 -20 78 134 78 353 c 0
 78 667 454 786 540 826 c 1
1168 920 m 1
 1647 920 l 1
 1647 902 l 1
 1168 902 l 1
 1168 920 l 1
EndSplineSet
EndChar

StartChar: period
Encoding: 46 46 1
GlifName: period
Width: 519
Flags: HMW
LayerCount: 2
Fore
SplineSet
80 160 m 0
 80 259 161 340 260 340 c 0
 359 340 439 259 439 160 c 0
 439 61 359 -20 260 -20 c 0
 161 -20 80 61 80 160 c 0
EndSplineSet
EndChar

StartChar: zero
Encoding: 48 48 2
GlifName: zero
Width: 1319
Flags: HMW
LayerCount: 2
Fore
SplineSet
660 -20 m 0
 314 -20 80 314 80 750 c 0
 80 1186 334 1520 660 1520 c 0
 986 1520 1240 1186 1240 750 c 0
 1240 314 1006 -20 660 -20 c 0
660 1503 m 0
 472 1503 430 1164 430 750 c 0
 430 336 452 -3 660 -3 c 0
 868 -3 890 336 890 750 c 0
 890 1164 858 1503 660 1503 c 0
EndSplineSet
EndChar

StartChar: one
Encoding: 49 49 3
GlifName: one
Width: 989
VWidth: 2309
Flags: HMW
LayerCount: 2
Fore
SplineSet
100 18 m 1
 890 18 l 1
 890 0 l 1
 100 0 l 1
 100 18 l 1
134 1500 m 1
 670 1500 l 1
 670 7 l 1
 360 7 l 1
 360 1482 l 1
 134 1482 l 1
 134 1500 l 1
EndSplineSet
EndChar

StartChar: two
Encoding: 50 50 4
GlifName: two
Width: 1199
VWidth: 2309
Flags: HMW
LayerCount: 2
Fore
SplineSet
1130 0 m 1
 80 0 l 1
 80 200 l 1
 503 543 l 2
 677 685 768 842 768 1060 c 0
 768 1306 664 1469 482 1469 c 0
 283 1469 120 1305 123 1101 c 1
 146 1169 209 1224 292 1224 c 0
 396 1224 476 1152 476 1052 c 0
 476 942 380 869 280 869 c 0
 180 869 101 945 101 1097 c 0
 101 1331 286 1520 600 1520 c 0
 912 1520 1088 1350 1088 1140 c 0
 1088 910 873 799 725 688 c 2
 257 300 l 1
 1112 300 l 1
 1112 450 l 1
 1130 450 l 1
 1130 0 l 1
EndSplineSet
EndChar

StartChar: three
Encoding: 51 51 5
GlifName: three
Width: 1140
VWidth: 2309
Flags: HMW
LayerCount: 2
Fore
SplineSet
1061 410 m 0
 1061 140 813 -20 511 -20 c 0
 197 -20 49 158 49 322 c 0
 49 434 124 507 224 507 c 0
 314 507 382 443 382 341 c 0
 382 247 301 180 213 180 c 0
 151 180 108 206 87 241 c 5
 110 138 245 9 465 9 c 0
 683 9 739 192 739 410 c 0
 739 588 683 801 395 801 c 1
 395 814 l 1
 897 814 1061 640 1061 410 c 0
395 806 m 1
 395 819 l 1
 663 819 679 1044 679 1182 c 0
 679 1340 623 1492 485 1492 c 0
 350 1492 208 1405 163 1319 c 5
 195 1355 243 1368 283 1368 c 0
 361 1368 437 1308 437 1213 c 0
 437 1108 353 1047 273 1047 c 0
 183 1047 109 1104 109 1211 c 0
 109 1385 317 1518 521 1518 c 0
 783 1518 1001 1392 1001 1172 c 0
 1001 972 877 806 395 806 c 1
EndSplineSet
EndChar

StartChar: four
Encoding: 52 52 6
GlifName: four
Width: 1279
VWidth: 2309
Flags: HMW
LayerCount: 2
Fore
SplineSet
1190 18 m 1
 1190 0 l 1
 540 0 l 1
 540 18 l 1
 730 18 l 1
 730 1352 l 1
 104 439 l 1
 1260 439 l 1
 1260 420 l 1
 69 420 l 1
 810 1500 l 1
 1040 1500 l 1
 1040 18 l 1
 1190 18 l 1
EndSplineSet
Substitution2: "'ss03' Style Set 3 lookup 5-1" four.alt
EndChar

StartChar: five
Encoding: 53 53 7
GlifName: five
Width: 1069
VWidth: 2309
Flags: HMW
LayerCount: 2
Fore
SplineSet
940 1200 m 1
 132 1200 l 1
 132 714 l 1
 114 714 l 1
 114 1500 l 1
 922 1500 l 1
 922 1610 l 1
 940 1610 l 1
 940 1200 l 1
68 173 m 5
 107 83 244 5 388 5 c 0
 606 5 680 217 680 445 c 0
 680 713 605 878 437 878 c 0
 291 878 178 796 138 714 c 1
 121 714 l 1
 163 808 292 910 504 910 c 0
 806 910 1010 745 1010 445 c 0
 1010 175 764 -20 432 -20 c 0
 218 -20 20 94 20 278 c 0
 20 390 99 462 194 462 c 0
 284 462 368 405 368 295 c 0
 368 195 282 120 188 120 c 0
 140 120 94 141 68 173 c 5
EndSplineSet
EndChar

StartChar: six
Encoding: 54 54 8
GlifName: six
Width: 1219
VWidth: 2309
Flags: HMW
LayerCount: 2
Fore
SplineSet
830 500 m 0
 830 818 758 946 630 946 c 0
 486 946 430 820 430 560 c 1
 415 560 l 1
 415 816 457 985 692 985 c 0
 914 985 1160 840 1160 500 c 0
 1160 200 960 -20 638 -20 c 0
 316 -20 100 200 100 620 c 0
 100 1106 484 1520 1010 1520 c 1
 1010 1503 l 1
 652 1503 429 1103 429 687 c 1
 430 560 l 1
 430 242 486 -1 644 -1 c 0
 802 -1 830 222 830 500 c 0
EndSplineSet
EndChar

StartChar: seven
Encoding: 55 55 9
GlifName: seven
Width: 1079
VWidth: 2309
Flags: HMW
LayerCount: 2
Fore
SplineSet
296 182 m 0
 296 340 482 529 617 746 c 0
 686 862 768 1016 862 1190 c 1
 98 1190 l 1
 98 1040 l 1
 80 1040 l 1
 80 1500 l 1
 1060 1500 l 1
 1060 1500 805 1018 649 755 c 0
 549 586 521 542 521 470 c 0
 521 344 676 314 676 166 c 0
 676 62 606 -20 488 -20 c 0
 380 -20 296 41 296 182 c 0
EndSplineSet
EndChar

StartChar: eight
Encoding: 56 56 10
GlifName: eight
Width: 1199
VWidth: 2309
Flags: HMW
LayerCount: 2
Fore
SplineSet
440 1120 m 0
 440 902 482 785 600 785 c 0
 718 785 760 902 760 1120 c 0
 760 1328 718 1491 600 1491 c 0
 482 1491 440 1328 440 1120 c 0
120 1120 m 0
 120 1340 288 1520 600 1520 c 0
 912 1520 1080 1340 1080 1120 c 0
 1080 900 912 764 600 764 c 0
 288 764 120 900 120 1120 c 0
400 380 m 0
 400 172 452 9 600 9 c 0
 748 9 800 172 800 380 c 0
 800 588 748 755 600 755 c 0
 452 755 400 588 400 380 c 0
80 380 m 0
 80 620 248 777 600 777 c 0
 952 777 1120 620 1120 380 c 0
 1120 140 952 -20 600 -20 c 0
 248 -20 80 140 80 380 c 0
EndSplineSet
EndChar

StartChar: A
Encoding: 65 65 12
GlifName: A_
Width: 1580
Flags: HMW
LayerCount: 2
Fore
SplineSet
38 18 m 1
 479 18 l 1
 479 0 l 1
 38 0 l 1
 38 18 l 1
862 18 m 1
 1542 18 l 1
 1542 0 l 1
 862 0 l 1
 862 18 l 1
399 499 m 1
 1042 499 l 1
 1042 480 l 1
 399 480 l 1
 399 499 l 1
657 1191 m 1
 239 0 l 1
 217 0 l 1
 756 1530 l 1
 872 1530 l 1
 1402 0 l 1
 1042 0 l 1
 657 1191 l 1
EndSplineSet
EndChar

StartChar: B
Encoding: 66 66 13
GlifName: B_
Width: 1404
Flags: HMW
LayerCount: 2
Fore
SplineSet
719 766 m 2
 479 766 l 1
 479 780 l 1
 679 780 l 2
 821 780 938 872 938 1110 c 0
 938 1348 821 1482 679 1482 c 2
 38 1482 l 1
 38 1500 l 1
 719 1500 l 2
 1051 1500 1259 1390 1259 1130 c 0
 1259 880 1071 766 719 766 c 2
218 1500 m 1
 528 1500 l 1
 528 0 l 1
 218 0 l 1
 218 1500 l 1
759 0 m 2
 38 0 l 1
 38 18 l 1
 698 18 l 2
 860 18 979 182 979 420 c 0
 979 658 860 761 698 761 c 2
 479 761 l 1
 479 774 l 1
 759 774 l 2
 1071 774 1318 680 1318 400 c 0
 1318 110 1111 0 759 0 c 2
EndSplineSet
EndChar

StartChar: C
Encoding: 67 67 14
GlifName: C_
Width: 1421
Flags: HMW
LayerCount: 2
Fore
SplineSet
1295 1500 m 1
 1311 1500 l 1
 1311 1060 l 1
 1263 1189 1200 1303 1113 1393 c 1
 1295 1500 l 1
1311 1060 m 1
 1291 1060 l 1
 1217 1315 1048 1492 827 1492 c 0
 529 1492 437 1114 437 750 c 0
 437 386 529 8 827 8 c 0
 1097 8 1244 202 1312 440 c 1
 1330 440 l 1
 1270 174 1093 -20 807 -20 c 0
 361 -20 87 304 87 750 c 0
 87 1196 361 1520 807 1520 c 0
 1063 1520 1241 1326 1311 1060 c 1
1330 440 m 1
 1330 0 l 1
 1315 0 l 1
 1144 117 l 1
 1231 210 1287 310 1330 440 c 1
EndSplineSet
EndChar

StartChar: D
Encoding: 68 68 15
GlifName: D_
Width: 1524
Flags: HMW
LayerCount: 2
Fore
SplineSet
218 1500 m 1
 528 1500 l 1
 528 0 l 1
 218 0 l 1
 218 1500 l 1
678 0 m 2
 38 0 l 1
 38 18 l 1
 678 18 l 2
 986 18 1088 356 1088 750 c 0
 1088 1144 966 1482 678 1482 c 2
 38 1482 l 1
 38 1500 l 1
 678 1500 l 2
 1154 1500 1438 1196 1438 750 c 0
 1438 304 1134 0 678 0 c 2
EndSplineSet
EndChar

StartChar: E
Encoding: 69 69 16
GlifName: E_
Width: 1266
Flags: HMW
LayerCount: 2
Fore
SplineSet
1184 450 m 1
 1202 450 l 1
 1202 0 l 1
 38 0 l 1
 38 18 l 1
 739 18 l 2
 1013 18 1154 196 1184 450 c 1
218 1500 m 1
 528 1500 l 1
 528 0 l 1
 218 0 l 1
 218 1500 l 1
38 1500 m 1
 1182 1500 l 1
 1182 1090 l 1
 1164 1090 l 1
 1134 1304 992 1482 758 1482 c 2
 38 1482 l 1
 38 1500 l 1
854 526 m 1
 824 660 713 767 599 767 c 2
 458 767 l 1
 458 786 l 1
 599 786 l 2
 713 786 824 882 854 1016 c 1
 872 1016 l 1
 872 526 l 1
 854 526 l 1
EndSplineSet
EndChar

StartChar: F
Encoding: 70 70 17
GlifName: F_
Width: 1216
Flags: HMW
LayerCount: 2
Fore
SplineSet
38 1500 m 1
 1152 1500 l 1
 1152 1090 l 1
 1134 1090 l 1
 1104 1304 983 1482 759 1482 c 2
 38 1482 l 1
 38 1500 l 1
38 18 m 1
 729 18 l 1
 729 0 l 1
 38 0 l 1
 38 18 l 1
218 1500 m 1
 528 1500 l 1
 528 0 l 1
 218 0 l 1
 218 1500 l 1
854 496 m 1
 824 630 732 737 578 737 c 2
 448 737 l 1
 448 755 l 1
 578 755 l 2
 732 755 824 852 854 986 c 1
 872 986 l 1
 872 496 l 1
 854 496 l 1
EndSplineSet
EndChar

StartChar: G
Encoding: 71 71 18
GlifName: G_
Width: 1521
Flags: HMW
LayerCount: 2
Fore
SplineSet
1351 1060 m 1
 1308 1213 1214 1329 1132 1402 c 1
 1335 1500 l 1
 1351 1500 l 1
 1351 1060 l 1
857 580 m 1
 1497 580 l 1
 1497 561 l 1
 857 561 l 1
 857 580 l 1
1067 567 m 1
 1397 567 l 1
 1397 310 l 1
 1267 174 1123 -20 797 -20 c 0
 351 -20 87 284 87 750 c 0
 87 1216 421 1520 827 1520 c 0
 1083 1520 1321 1306 1351 1060 c 1
 1333 1060 l 1
 1291 1274 1092 1492 854 1492 c 0
 556 1492 437 1114 437 750 c 0
 437 386 509 3 797 3 c 0
 965 3 1037 166 1067 250 c 1
 1067 567 l 1
EndSplineSet
EndChar

StartChar: H
Encoding: 72 72 19
GlifName: H_
Width: 1596
Flags: HMW
LayerCount: 2
Fore
SplineSet
488 750 m 1
 1108 750 l 1
 1108 731 l 1
 488 731 l 1
 488 750 l 1
889 18 m 1
 1559 18 l 1
 1559 0 l 1
 889 0 l 1
 889 18 l 1
38 18 m 1
 708 18 l 1
 708 0 l 1
 38 0 l 1
 38 18 l 1
889 1500 m 1
 1559 1500 l 1
 1559 1482 l 1
 889 1482 l 1
 889 1500 l 1
38 1500 m 1
 708 1500 l 1
 708 1482 l 1
 38 1482 l 1
 38 1500 l 1
1068 1500 m 1
 1378 1500 l 1
 1378 0 l 1
 1068 0 l 1
 1068 1500 l 1
218 1500 m 1
 528 1500 l 1
 528 0 l 1
 218 0 l 1
 218 1500 l 1
EndSplineSet
EndChar

StartChar: I
Encoding: 73 73 20
GlifName: I_
Width: 846
Flags: HMW
LayerCount: 2
Fore
SplineSet
38 18 m 1
 809 18 l 1
 809 0 l 1
 38 0 l 1
 38 18 l 1
38 1500 m 1
 809 1500 l 1
 809 1482 l 1
 38 1482 l 1
 38 1500 l 1
258 1500 m 1
 568 1500 l 1
 568 0 l 1
 258 0 l 1
 258 1500 l 1
EndSplineSet
EndChar

StartChar: J
Encoding: 74 74 21
GlifName: J_
Width: 1082
Flags: HMW
LayerCount: 2
Fore
SplineSet
274 1500 m 1
 1044 1500 l 1
 1044 1482 l 1
 274 1482 l 1
 274 1500 l 1
534 1500 m 1
 844 1500 l 1
 844 340 l 1
 764 150 656 -60 365 -60 c 4
 161 -60 32 58 32 208 c 4
 32 322 116 398 216 398 c 0
 306 398 388 333 388 221 c 0
 388 123 311 46 217 46 c 0
 164 46 111 62 92 78 c 5
 132 10 235 -41 357 -41 c 0
 507 -41 534 100 534 380 c 2
 534 1500 l 1
EndSplineSet
Substitution2: "'ss02' Style Set 2 lookup 4-1" J.alt
EndChar

StartChar: K
Encoding: 75 75 22
GlifName: K_
Width: 1543
Flags: HMW
LayerCount: 2
Fore
SplineSet
38 18 m 1
 708 18 l 1
 708 0 l 1
 38 0 l 1
 38 18 l 1
38 1500 m 1
 729 1500 l 1
 729 1482 l 1
 38 1482 l 1
 38 1500 l 1
218 1500 m 1
 528 1500 l 1
 528 0 l 1
 218 0 l 1
 218 1500 l 1
319 434 m 1
 293 434 l 1
 1201 1496 l 1
 1228 1496 l 1
 319 434 l 1
809 18 m 1
 1528 18 l 1
 1528 0 l 1
 809 0 l 1
 809 18 l 1
1438 1482 m 1
 958 1482 l 1
 958 1500 l 1
 1438 1500 l 1
 1438 1482 l 1
1373 0 m 1
 1013 0 l 1
 580 761 l 1
 785 993 l 1
 1373 0 l 1
EndSplineSet
EndChar

StartChar: L
Encoding: 76 76 23
GlifName: L_
Width: 1241
Flags: HMW
LayerCount: 2
Fore
SplineSet
218 1500 m 1
 528 1500 l 1
 528 0 l 1
 218 0 l 1
 218 1500 l 1
38 1500 m 1
 708 1500 l 1
 708 1482 l 1
 38 1482 l 1
 38 1500 l 1
1196 0 m 1
 38 0 l 1
 38 18 l 1
 733 18 l 2
 1027 18 1149 196 1179 450 c 1
 1196 450 l 1
 1196 0 l 1
EndSplineSet
EndChar

StartChar: M
Encoding: 77 77 24
GlifName: M_
Width: 1784
Flags: HMW
LayerCount: 2
Fore
SplineSet
1747 1500 m 1
 1747 1482 l 1
 1606 1482 l 1
 1606 0 l 1
 1297 0 l 1
 1297 1500 l 1
 1747 1500 l 1
48 18 m 1
 361 18 l 1
 361 0 l 1
 48 0 l 1
 48 18 l 1
1137 18 m 1
 1747 18 l 1
 1747 0 l 1
 1137 0 l 1
 1137 18 l 1
909 425 m 1
 1285 1500 l 1
 1304 1500 l 1
 776 -20 l 1
 754 -20 l 1
 198 1500 l 1
 510 1500 l 1
 909 425 l 1
191 1482 m 1
 38 1482 l 1
 38 1500 l 1
 211 1500 l 1
 211 0 l 1
 191 0 l 1
 191 1482 l 1
EndSplineSet
EndChar

StartChar: N
Encoding: 78 78 25
GlifName: N_
Width: 1520
Flags: HMW
LayerCount: 2
Fore
SplineSet
1254 1500 m 1
 1273 1500 l 1
 1273 -20 l 1
 1246 -20 l 1
 242 1500 l 1
 612 1500 l 1
 1254 510 l 1
 1254 1500 l 1
1025 1500 m 1
 1483 1500 l 1
 1483 1482 l 1
 1025 1482 l 1
 1025 1500 l 1
38 18 m 1
 492 18 l 1
 492 0 l 1
 38 0 l 1
 38 18 l 1
240 1482 m 1
 38 1482 l 1
 38 1500 l 1
 260 1500 l 1
 260 0 l 1
 240 0 l 1
 240 1482 l 1
EndSplineSet
EndChar

StartChar: O
Encoding: 79 79 26
GlifName: O_
Width: 1533
Flags: HMW
LayerCount: 2
Fore
SplineSet
767 -20 m 0
 341 -20 87 314 87 750 c 0
 87 1186 361 1520 767 1520 c 0
 1173 1520 1447 1186 1447 750 c 0
 1447 314 1193 -20 767 -20 c 0
767 1503 m 0
 509 1503 437 1164 437 750 c 0
 437 336 489 -3 767 -3 c 0
 1045 -3 1097 336 1097 750 c 0
 1097 1164 1025 1503 767 1503 c 0
EndSplineSet
EndChar

StartChar: P
Encoding: 80 80 27
GlifName: P_
Width: 1358
Flags: HMW
LayerCount: 2
Fore
SplineSet
218 1500 m 1
 528 1500 l 1
 528 0 l 1
 218 0 l 1
 218 1500 l 1
38 18 m 1
 708 18 l 1
 708 0 l 1
 38 0 l 1
 38 18 l 1
729 668 m 2
 438 668 l 1
 438 687 l 1
 688 687 l 2
 860 687 938 900 938 1078 c 0
 938 1256 860 1482 688 1482 c 2
 38 1482 l 1
 38 1500 l 1
 729 1500 l 2
 1111 1500 1278 1338 1278 1078 c 0
 1278 818 1111 668 729 668 c 2
EndSplineSet
EndChar

StartChar: Q
Encoding: 81 81 28
GlifName: Q_
Width: 1533
Flags: HMW
LayerCount: 2
Fore
SplineSet
767 -20 m 0
 341 -20 87 314 87 750 c 0
 87 1186 361 1520 767 1520 c 0
 1173 1520 1447 1186 1447 750 c 0
 1447 314 1193 -20 767 -20 c 0
767 1503 m 0
 509 1503 437 1164 437 750 c 0
 437 336 489 -3 767 -3 c 0
 1045 -3 1097 336 1097 750 c 0
 1097 1164 1025 1503 767 1503 c 0
1167 -482 m 1
 1167 -500 l 1
 671 -500 587 -387 587 9 c 1
 706 -18 821 -18 937 9 c 1
 937 -355 951 -482 1167 -482 c 1
EndSplineSet
EndChar

StartChar: R
Encoding: 82 82 29
GlifName: R_
Width: 1495
Flags: HMW
LayerCount: 2
Fore
SplineSet
738 764 m 2
 398 764 l 1
 398 777 l 1
 688 777 l 2
 880 777 979 889 979 1127 c 0
 979 1365 880 1482 688 1482 c 2
 38 1482 l 1
 38 1500 l 1
 738 1500 l 2
 1070 1500 1299 1387 1299 1127 c 0
 1299 867 1090 764 738 764 c 2
38 18 m 1
 748 18 l 1
 748 0 l 1
 38 0 l 1
 38 18 l 1
238 1500 m 1
 549 1500 l 1
 549 0 l 1
 238 0 l 1
 238 1500 l 1
1469 26 m 1
 1437 8 1347 -15 1229 -15 c 0
 683 -15 1180 758 688 758 c 2
 398 758 l 1
 398 770 l 1
 849 770 l 2
 1501 770 1110 18 1354 18 c 0
 1396 18 1434 29 1462 42 c 1
 1469 26 l 1
EndSplineSet
Substitution2: "'ss01' Style Set 1 lookup 2-1" R.alt
EndChar

StartChar: S
Encoding: 83 83 30
GlifName: S_
Width: 1199
Flags: HMW
LayerCount: 2
Fore
SplineSet
1046 1070 m 1
 1026 1070 l 1
 946 1335 791 1497 570 1497 c 0
 408 1497 323 1402 323 1266 c 0
 323 926 1122 1008 1122 430 c 0
 1122 150 904 -30 622 -30 c 0
 311 -30 167 210 89 450 c 1
 107 450 l 1
 182 223 327 -9 610 -9 c 0
 802 -9 920 108 920 282 c 0
 920 662 112 540 112 1120 c 0
 112 1370 324 1520 557 1520 c 0
 803 1520 966 1351 1046 1070 c 1
1031 1520 m 1
 1046 1520 l 1
 1046 1070 l 1
 993 1197 943 1300 854 1402 c 1
 1031 1520 l 1
104 -20 m 1
 89 -20 l 1
 89 450 l 1
 154 302 208 199 286 108 c 1
 104 -20 l 1
EndSplineSet
EndChar

StartChar: T
Encoding: 84 84 31
GlifName: T_
Width: 1373
Flags: HMW
LayerCount: 2
Fore
SplineSet
312 18 m 1
 1062 18 l 1
 1062 0 l 1
 312 0 l 1
 312 18 l 1
532 1493 m 1
 842 1493 l 1
 842 0 l 1
 532 0 l 1
 532 1493 l 1
972 1482 m 2
 402 1482 l 2
 188 1482 87 1274 57 1020 c 1
 38 1020 l 1
 38 1500 l 1
 1335 1500 l 1
 1335 1020 l 1
 1317 1020 l 1
 1287 1274 1186 1482 972 1482 c 2
EndSplineSet
EndChar

StartChar: U
Encoding: 85 85 32
GlifName: U_
Width: 1458
Flags: HMW
LayerCount: 2
Fore
SplineSet
1024 1500 m 1
 1419 1500 l 1
 1419 1482 l 1
 1024 1482 l 1
 1024 1500 l 1
37 1500 m 1
 727 1500 l 1
 727 1482 l 1
 37 1482 l 1
 37 1500 l 1
1208 1500 m 1
 1227 1500 l 1
 1227 460 l 2
 1227 130 1083 -30 757 -30 c 0
 381 -30 217 114 217 460 c 2
 217 1500 l 1
 527 1500 l 1
 527 480 l 2
 527 216 576 4 834 4 c 0
 1060 4 1208 140 1208 460 c 2
 1208 1500 l 1
EndSplineSet
EndChar

StartChar: V
Encoding: 86 86 33
GlifName: V_
Width: 1570
Flags: HMW
LayerCount: 2
Fore
SplineSet
1538 1482 m 1
 1094 1482 l 1
 1094 1500 l 1
 1538 1500 l 1
 1538 1482 l 1
753 1482 m 1
 33 1482 l 1
 33 1500 l 1
 753 1500 l 1
 753 1482 l 1
920 307 m 1
 1345 1500 l 1
 1367 1500 l 1
 820 -30 l 1
 703 -30 l 1
 173 1500 l 1
 533 1500 l 1
 920 307 l 1
EndSplineSet
EndChar

StartChar: W
Encoding: 87 87 34
GlifName: W_
Width: 2212
Flags: HMW
LayerCount: 2
Fore
SplineSet
1202 949 m 1
 835 -20 l 5
 735 -20 l 1
 184 1500 l 1
 535 1500 l 1
 950 343 l 1
 1195 989 l 1
 1202 949 l 1
1320 930 m 1
 1308 956 l 1
 1510 1500 l 1
 1531 1499 l 1
 1320 930 l 1
2188 1482 m 1
 1790 1482 l 1
 1790 1500 l 1
 2188 1500 l 1
 2188 1482 l 1
1151 1500 m 1
 1564 343 l 1
 1997 1500 l 1
 2018 1499 l 1
 1452 -20 l 1
 1382 -20 l 1
 829 1500 l 1
 1151 1500 l 1
1700 1482 m 1
 25 1482 l 1
 25 1500 l 1
 1700 1500 l 1
 1700 1482 l 1
EndSplineSet
EndChar

StartChar: X
Encoding: 88 88 35
GlifName: X_
Width: 1593
Flags: HMW
LayerCount: 2
Fore
SplineSet
810 754 m 1
 784 754 l 1
 1259 1496 l 1
 1281 1496 l 1
 810 754 l 1
250 0 m 1
 226 0 l 1
 783 834 l 1
 808 834 l 1
 250 0 l 1
885 18 m 1
 1568 18 l 1
 1568 0 l 1
 885 0 l 1
 885 18 l 1
24 18 m 1
 503 18 l 1
 503 0 l 1
 24 0 l 1
 24 18 l 1
774 1482 m 1
 94 1482 l 1
 94 1500 l 1
 774 1500 l 1
 774 1482 l 1
1458 1482 m 1
 1020 1482 l 1
 1020 1500 l 1
 1458 1500 l 1
 1458 1482 l 1
1439 0 m 1
 1080 0 l 1
 214 1500 l 1
 566 1500 l 1
 1439 0 l 1
EndSplineSet
EndChar

StartChar: Y
Encoding: 89 89 36
GlifName: Y_
Width: 1480
Flags: HMW
LayerCount: 2
Fore
SplineSet
1454 1482 m 1
 1037 1482 l 1
 1037 1500 l 1
 1454 1500 l 1
 1454 1482 l 1
725 1482 m 1
 24 1482 l 1
 24 1500 l 1
 725 1500 l 1
 725 1482 l 1
424 18 m 1
 1114 18 l 1
 1114 0 l 1
 424 0 l 1
 424 18 l 1
905 790 m 1
 1272 1496 l 1
 1295 1496 l 1
 914 766 l 1
 914 0 l 1
 604 0 l 1
 604 720 l 1
 152 1500 l 1
 512 1500 l 1
 905 790 l 1
EndSplineSet
EndChar

StartChar: Z
Encoding: 90 90 37
GlifName: Z_
Width: 1234
Flags: HMW
LayerCount: 2
Fore
SplineSet
69 1500 m 1
 1148 1500 l 1
 1148 1482 l 1
 378 18 l 1
 743 18 l 2
 1017 18 1108 156 1148 410 c 1
 1167 410 l 1
 1167 0 l 1
 28 0 l 1
 28 18 l 1
 798 1482 l 1
 493 1482 l 2
 219 1482 128 1344 88 1130 c 1
 69 1130 l 1
 69 1500 l 1
EndSplineSet
EndChar

StartChar: a
Encoding: 97 97 38
GlifName: a
Width: 1174
VWidth: 2309
Flags: HMW
LayerCount: 2
Fore
SplineSet
1161 118 m 1
 1116 26 1015 -20 900 -20 c 0
 776 -20 668 22 668 158 c 2
 668 610 l 2
 668 765 628 913 478 913 c 0
 378 913 284 877 246 844 c 5
 368 888 475 818 475 726 c 0
 475 636 388 582 308 582 c 0
 218 582 153 640 153 722 c 0
 153 851 328 936 530 936 c 0
 857 936 947 792 947 610 c 2
 947 102 l 2
 947 58 971 28 1018 28 c 0
 1050 28 1108 53 1146 125 c 1
 1161 118 l 1
521 510 m 2
 771 510 l 1
 771 492 l 1
 592 492 l 2
 467 492 386 381 386 251 c 0
 386 139 426 69 497 69 c 0
 575 69 668 139 668 363 c 1
 683 363 l 1
 683 117 574 -20 354 -20 c 0
 194 -20 83 78 83 226 c 0
 83 395 229 510 521 510 c 2
EndSplineSet
EndChar

StartChar: b
Encoding: 98 98 39
GlifName: b
Width: 1268
VWidth: 2309
Flags: HMW
LayerCount: 2
Fore
SplineSet
442 460 m 0
 442 757 561 938 771 938 c 0
 987 938 1193 760 1193 460 c 0
 1193 160 987 -20 771 -20 c 0
 562 -20 442 163 442 460 c 0
458 460 m 0
 458 172 584 19 707 19 c 0
 822 19 874 172 874 460 c 0
 874 748 822 899 707 899 c 0
 584 899 458 748 458 460 c 0
178 1482 m 1
 46 1482 l 1
 46 1500 l 1
 458 1500 l 1
 458 0 l 1
 46 0 l 1
 46 18 l 1
 178 18 l 1
 178 1482 l 1
EndSplineSet
EndChar

StartChar: c
Encoding: 99 99 40
GlifName: c
Width: 1051
VWidth: 2309
Flags: HMW
LayerCount: 2
Fore
SplineSet
902 786 m 5
 855 857 739 918 618 918 c 0
 431 918 406 648 406 460 c 0
 406 232 451 12 621 12 c 0
 782 12 890 121 942 281 c 1
 962 281 l 1
 910 110 794 -20 572 -20 c 0
 280 -20 76 140 76 460 c 0
 76 740 251 940 583 940 c 0
 797 940 960 820 960 671 c 0
 960 570 892 513 802 513 c 0
 722 513 638 555 638 670 c 0
 638 769 719 817 784 817 c 0
 836 817 875 807 902 786 c 5
EndSplineSet
EndChar

StartChar: d
Encoding: 100 100 41
GlifName: d
Width: 1268
VWidth: 2309
Flags: HMW
LayerCount: 2
Fore
SplineSet
827 459 m 0
 827 162 709 -19 499 -19 c 0
 283 -19 76 159 76 459 c 0
 76 759 283 939 499 939 c 0
 708 939 827 756 827 459 c 0
811 459 m 0
 811 755 681 900 562 900 c 0
 447 900 396 751 396 459 c 0
 396 167 451 23 566 23 c 0
 685 23 811 163 811 459 c 0
1224 18 m 1
 1224 0 l 1
 811 0 l 1
 811 1482 l 1
 679 1482 l 1
 679 1500 l 1
 1091 1500 l 1
 1091 18 l 1
 1224 18 l 1
EndSplineSet
EndChar

StartChar: e
Encoding: 101 101 42
GlifName: e
Width: 1066
VWidth: 2309
Flags: HMW
LayerCount: 2
Fore
SplineSet
210 518 m 1
 210 537 l 1
 695 537 l 1
 695 704 684 921 558 921 c 0
 421 921 385 708 385 480 c 0
 385 222 427 9 613 9 c 0
 795 9 929 124 979 281 c 1
 997 281 l 1
 945 110 805 -20 564 -20 c 0
 284 -20 76 150 76 460 c 0
 76 770 277 940 558 940 c 0
 854 940 993 736 993 518 c 1
 210 518 l 1
EndSplineSet
EndChar

StartChar: f
Encoding: 102 102 43
GlifName: f
Width: 804
VWidth: 2309
Flags: HMW
LayerCount: 2
Fore
SplineSet
36 18 m 1
 710 18 l 1
 710 0 l 1
 36 0 l 1
 36 18 l 1
36 920 m 1
 750 920 l 1
 750 902 l 1
 36 902 l 1
 36 920 l 1
926 1376 m 5
 903 1428 830 1501 696 1501 c 0
 536 1501 478 1334 478 1080 c 2
 478 0 l 1
 208 0 l 1
 208 1024 l 2
 208 1306 402 1520 692 1520 c 0
 864 1520 968 1406 968 1292 c 0
 968 1190 904 1128 814 1128 c 0
 734 1128 651 1178 651 1277 c 0
 651 1372 724 1430 803 1430 c 0
 857 1430 904 1407 926 1376 c 5
EndSplineSet
EndChar

StartChar: g
Encoding: 103 103 44
GlifName: g
Width: 1256
VWidth: 2309
Flags: HMW
LayerCount: 2
Fore
SplineSet
110 136 m 0
 110 292 344 342 518 342 c 1
 517 331 l 1
 431 331 287 301 287 230 c 0
 287 171 380 168 490 168 c 0
 560 168 612 170 668 170 c 0
 818 170 1006 108 1006 -164 c 0
 1006 -409 799 -520 528 -520 c 0
 290 -520 46 -450 46 -266 c 0
 46 -90 264 -52 354 -52 c 2
 369 -52 l 1
 299 -88 284 -171 284 -219 c 0
 284 -374 378 -498 551 -498 c 0
 732 -498 934 -429 934 -249 c 0
 934 -125 802 -68 672 -68 c 0
 620 -68 502 -68 458 -68 c 0
 278 -68 110 -18 110 136 c 0
385 630 m 0
 385 462 396 344 504 344 c 0
 582 344 623 462 623 630 c 0
 623 798 582 921 504 921 c 0
 426 921 385 798 385 630 c 0
96 630 m 0
 96 850 312 940 504 940 c 0
 696 940 911 850 911 630 c 0
 911 410 696 325 504 325 c 0
 312 325 96 410 96 630 c 0
1189 815 m 1
 1170 865 1119 912 1027 912 c 4
 931 912 817 859 777 687 c 5
 761 695 l 1
 801 876 927 930 1027 930 c 0
 1158 930 1223 838 1223 762 c 0
 1223 653 1155 618 1095 618 c 0
 1035 618 970 657 970 743 c 0
 970 808 1021 860 1089 860 c 0
 1139 860 1174 839 1189 815 c 1
EndSplineSet
EndChar

StartChar: h
Encoding: 104 104 45
GlifName: h
Width: 1244
VWidth: 2309
Flags: HMW
LayerCount: 2
Fore
SplineSet
788 627 m 2
 788 795 772 873 688 873 c 0
 520 873 458 628 458 446 c 1
 444 443 l 1
 444 638 493 940 784 940 c 0
 1007 940 1067 812 1067 638 c 2
 1067 0 l 1
 788 0 l 1
 788 627 l 2
687 18 m 1
 1199 18 l 1
 1199 0 l 1
 687 0 l 1
 687 18 l 1
46 18 m 1
 560 18 l 1
 560 0 l 1
 46 0 l 1
 46 18 l 1
178 1482 m 1
 46 1482 l 1
 46 1500 l 1
 458 1500 l 1
 458 0 l 1
 178 0 l 1
 178 1482 l 1
EndSplineSet
EndChar

StartChar: i
Encoding: 105 105 46
GlifName: i
Width: 640
VWidth: 2309
Flags: HMW
LayerCount: 2
Fore
SplineSet
56 18 m 1
 600 18 l 1
 600 0 l 1
 56 0 l 1
 56 18 l 1
138 1350 m 0
 138 1446 212 1520 308 1520 c 0
 404 1520 478 1446 478 1350 c 0
 478 1254 404 1180 308 1180 c 0
 212 1180 138 1254 138 1350 c 0
188 902 m 1
 56 902 l 1
 56 920 l 1
 468 920 l 1
 468 0 l 1
 188 0 l 1
 188 902 l 1
EndSplineSet
EndChar

StartChar: j
Encoding: 106 106 47
GlifName: j
Width: 656
VWidth: 2309
Flags: HMW
LayerCount: 2
Fore
SplineSet
172 1350 m 4
 172 1446 246 1520 342 1520 c 4
 438 1520 512 1446 512 1350 c 4
 512 1254 438 1180 342 1180 c 4
 246 1180 172 1254 172 1350 c 4
498 920 m 5
 498 -24 l 6
 498 -286 344 -520 64 -520 c 4
 -118 -520 -242 -415 -242 -283 c 4
 -242 -182 -165 -118 -78 -118 c 4
 2 -118 84 -166 84 -266 c 4
 84 -358 19 -418 -85 -418 c 4
 -141 -418 -178 -391 -198 -366 c 5
 -180 -424 -86 -498 39 -498 c 4
 249 -498 215 -212 215 42 c 6
 218 902 l 5
 46 902 l 5
 46 920 l 5
 498 920 l 5
EndSplineSet
EndChar

StartChar: k
Encoding: 107 107 48
GlifName: k
Width: 1285
VWidth: 2309
Flags: HMW
LayerCount: 2
Fore
SplineSet
1184 0 m 1
 839 0 l 1
 443 533 l 1
 986 920 l 1
 1014 920 l 1
 668 666 l 1
 1184 0 l 1
704 18 m 1
 1260 18 l 1
 1260 0 l 1
 704 0 l 1
 704 18 l 1
1162 902 m 1
 732 902 l 1
 732 920 l 1
 1162 920 l 1
 1162 902 l 1
46 18 m 1
 607 18 l 1
 607 0 l 1
 46 0 l 1
 46 18 l 1
218 1482 m 1
 46 1482 l 1
 46 1500 l 1
 498 1500 l 1
 498 0 l 1
 218 0 l 1
 218 1482 l 1
EndSplineSet
EndChar

StartChar: l
Encoding: 108 108 49
GlifName: l
Width: 714
VWidth: 2309
Flags: HMW
LayerCount: 2
Fore
SplineSet
46 18 m 1
 670 18 l 1
 670 0 l 1
 46 0 l 1
 46 18 l 1
218 1482 m 1
 46 1482 l 1
 46 1500 l 1
 498 1500 l 1
 498 0 l 1
 218 0 l 1
 218 1482 l 1
EndSplineSet
EndChar

StartChar: m
Encoding: 109 109 50
GlifName: m
Width: 1773
VWidth: 2309
Flags: HMW
LayerCount: 2
Fore
SplineSet
1027 638 m 2
 1027 0 l 1
 748 0 l 1
 748 628 l 2
 748 796 736 877 663 877 c 0
 519 877 457 638 457 448 c 1
 443 445 l 1
 443 640 485 940 763 940 c 0
 963 940 1027 812 1027 638 c 2
46 18 m 1
 554 18 l 1
 554 0 l 1
 46 0 l 1
 46 18 l 1
651 18 m 1
 1124 18 l 1
 1124 0 l 1
 651 0 l 1
 651 18 l 1
1221 18 m 1
 1729 18 l 1
 1729 0 l 1
 1221 0 l 1
 1221 18 l 1
178 902 m 1
 46 902 l 1
 46 920 l 1
 457 920 l 1
 457 0 l 1
 178 0 l 1
 178 902 l 1
1597 638 m 2
 1597 0 l 1
 1318 0 l 1
 1318 628 l 2
 1318 796 1305 877 1231 877 c 0
 1086 877 1027 638 1027 448 c 1
 1013 445 l 1
 1013 640 1048 940 1330 940 c 0
 1530 940 1597 812 1597 638 c 2
EndSplineSet
EndChar

StartChar: n
Encoding: 110 110 51
GlifName: n
Width: 1244
VWidth: 2309
Flags: HMW
LayerCount: 2
Fore
SplineSet
788 627 m 2
 788 795 772 873 688 873 c 0
 520 873 458 628 458 446 c 1
 444 443 l 1
 444 638 493 940 784 940 c 0
 1007 940 1067 812 1067 638 c 2
 1067 0 l 1
 788 0 l 1
 788 627 l 2
687 18 m 1
 1199 18 l 1
 1199 0 l 1
 687 0 l 1
 687 18 l 1
46 18 m 1
 560 18 l 1
 560 0 l 1
 46 0 l 1
 46 18 l 1
178 902 m 1
 46 902 l 1
 46 920 l 1
 458 920 l 1
 458 0 l 1
 178 0 l 1
 178 902 l 1
EndSplineSet
EndChar

StartChar: o
Encoding: 111 111 52
GlifName: o
Width: 1126
VWidth: 2309
Flags: HMW
LayerCount: 2
Fore
SplineSet
375 460 m 0
 375 222 417 -1 564 -1 c 0
 711 -1 753 222 753 460 c 0
 753 698 711 921 564 921 c 0
 417 921 375 698 375 460 c 0
76 460 m 0
 76 720 262 940 564 940 c 0
 866 940 1052 720 1052 460 c 0
 1052 200 866 -20 564 -20 c 0
 262 -20 76 200 76 460 c 0
EndSplineSet
EndChar

StartChar: p
Encoding: 112 112 53
GlifName: p
Width: 1268
VWidth: 2309
Flags: HMW
LayerCount: 2
Fore
SplineSet
442 460 m 0
 442 757 560 938 770 938 c 0
 986 938 1193 760 1193 460 c 0
 1193 160 986 -20 770 -20 c 0
 561 -20 442 163 442 460 c 0
458 460 m 0
 458 164 589 19 705 19 c 0
 825 19 874 180 874 460 c 0
 874 740 827 899 707 899 c 0
 588 899 458 756 458 460 c 0
46 -482 m 1
 590 -482 l 1
 590 -500 l 1
 46 -500 l 1
 46 -482 l 1
178 902 m 1
 46 902 l 1
 46 920 l 1
 458 920 l 1
 458 -500 l 1
 178 -500 l 1
 178 902 l 1
EndSplineSet
EndChar

StartChar: q
Encoding: 113 113 54
GlifName: q
Width: 1268
VWidth: 2309
Flags: HMW
LayerCount: 2
Fore
SplineSet
827 459 m 0
 827 162 709 -19 499 -19 c 0
 283 -19 76 159 76 459 c 0
 76 759 283 939 499 939 c 0
 708 939 827 756 827 459 c 0
811 459 m 0
 811 755 681 900 562 900 c 0
 447 900 396 739 396 459 c 0
 396 179 447 23 562 23 c 0
 689 23 811 163 811 459 c 0
1224 -482 m 1
 1224 -500 l 1
 679 -500 l 1
 679 -482 l 1
 1224 -482 l 1
1224 920 m 1
 1224 902 l 1
 1091 902 l 1
 1091 -500 l 1
 811 -500 l 1
 811 920 l 1
 1224 920 l 1
EndSplineSet
EndChar

StartChar: r
Encoding: 114 114 55
GlifName: r
Width: 979
VWidth: 2309
Flags: HMW
LayerCount: 2
Fore
SplineSet
899 823 m 5
 862 889 785 920 718 920 c 0
 499 920 457 659 457 442 c 1
 442 442 l 1
 442 684 484 940 723 940 c 0
 837 940 945 855 945 730 c 0
 945 637 884 559 779 559 c 0
 683 559 611 619 611 717 c 0
 611 855 788 929 899 823 c 5
46 18 m 1
 592 18 l 1
 592 0 l 1
 46 0 l 1
 46 18 l 1
178 902 m 1
 46 902 l 1
 46 920 l 1
 457 920 l 1
 457 0 l 1
 178 0 l 1
 178 902 l 1
EndSplineSet
EndChar

StartChar: s
Encoding: 115 115 56
GlifName: s
Width: 905
VWidth: 2309
Flags: HMW
LayerCount: 2
Fore
SplineSet
730 741 m 1
 703 783 671 818 637 851 c 1
 758 940 l 1
 773 940 l 1
 773 660 l 1
 756 660 l 1
 750 687 744 715 730 741 c 1
771 660 m 1
 755 660 l 1
 713 783 599 918 417 918 c 0
 317 918 238 871 238 790 c 0
 238 586 839 665 839 293 c 0
 839 85 662 -20 479 -20 c 0
 282 -20 138 106 88 292 c 1
 104 292 l 1
 158 116 298 0 469 0 c 0
 590 0 689 49 689 150 c 0
 689 361 107 263 107 651 c 0
 107 809 225 938 415 938 c 0
 609 938 731 792 771 660 c 1
100 -20 m 1
 85 -20 l 1
 85 292 l 1
 103 292 l 1
 107 254 117 223 130 196 c 1
 164 143 193 110 223 80 c 1
 100 -20 l 1
EndSplineSet
EndChar

StartChar: t
Encoding: 116 116 57
GlifName: t
Width: 739
VWidth: 2309
Flags: HMW
LayerCount: 2
Fore
SplineSet
25 920 m 1
 663 920 l 1
 663 902 l 1
 25 902 l 1
 25 920 l 1
723 196 m 1
 674 72 567 -14 404 -14 c 0
 210 -14 169 92 169 232 c 2
 169 1120 l 1
 259 1120 379 1140 449 1180 c 1
 449 179 l 2
 449 79 471 42 526 42 c 0
 589 42 666 106 707 204 c 1
 723 196 l 1
EndSplineSet
EndChar

StartChar: u
Encoding: 117 117 58
GlifName: u
Width: 1245
VWidth: 2309
Flags: HMW
LayerCount: 2
Fore
SplineSet
458 920 m 1
 458 293 l 2
 458 125 473 47 557 47 c 0
 725 47 788 292 788 474 c 1
 802 477 l 1
 802 282 752 -20 461 -20 c 0
 238 -20 178 108 178 282 c 2
 178 902 l 1
 46 902 l 1
 46 920 l 1
 458 920 l 1
1068 18 m 1
 1200 18 l 1
 1200 0 l 1
 788 0 l 1
 788 902 l 1
 658 902 l 1
 658 920 l 1
 1068 920 l 1
 1068 18 l 1
EndSplineSet
EndChar

StartChar: v
Encoding: 118 118 59
GlifName: v
Width: 1146
VWidth: 2309
Flags: HMW
LayerCount: 2
Fore
SplineSet
1131 902 m 1
 764 902 l 1
 764 920 l 1
 1131 920 l 1
 1131 902 l 1
590 902 m 1
 9 902 l 1
 9 920 l 1
 590 920 l 1
 590 902 l 1
683 239 m 1
 959 920 l 1
 983 920 l 1
 602 -20 l 1
 512 -20 l 1
 126 920 l 1
 436 920 l 1
 683 239 l 1
EndSplineSet
EndChar

StartChar: w
Encoding: 119 119 60
GlifName: w
Width: 1650
VWidth: 2309
Flags: HMW
LayerCount: 2
Fore
SplineSet
596 902 m 1
 9 902 l 1
 9 920 l 1
 596 920 l 1
 596 902 l 1
1634 902 m 1
 1231 902 l 1
 1231 920 l 1
 1634 920 l 1
 1634 902 l 1
613 257 m 1
 893 940 l 1
 1037 940 l 1
 1232 301 l 1
 1438 920 l 1
 1461 920 l 1
 1147 -20 l 1
 1057 -20 l 1
 806 673 l 1
 522 -20 l 1
 431 -20 l 1
 127 920 l 1
 422 920 l 1
 613 257 l 1
EndSplineSet
EndChar

StartChar: x
Encoding: 120 120 61
GlifName: x
Width: 1159
VWidth: 2309
Flags: HMW
LayerCount: 2
Fore
SplineSet
583 18 m 1
 1131 18 l 1
 1131 0 l 1
 583 0 l 1
 583 18 l 1
28 18 m 1
 394 18 l 1
 394 0 l 1
 28 0 l 1
 28 18 l 1
605 902 m 1
 39 902 l 1
 39 920 l 1
 605 920 l 1
 605 902 l 1
1106 902 m 1
 762 902 l 1
 762 920 l 1
 1106 920 l 1
 1106 902 l 1
1049 0 m 1
 720 0 l 1
 141 920 l 1
 460 920 l 1
 1049 0 l 1
177 0 m 1
 152 0 l 1
 938 920 l 1
 963 920 l 1
 177 0 l 1
EndSplineSet
EndChar

StartChar: y
Encoding: 121 121 62
GlifName: y
Width: 1187
VWidth: 2309
Flags: HMW
LayerCount: 2
Fore
SplineSet
643 902 m 1
 -1 902 l 1
 -1 920 l 1
 643 920 l 1
 643 902 l 1
1199 902 m 1
 848 902 l 1
 848 920 l 1
 1199 920 l 1
 1199 902 l 1
771 276 m 1
 612 -49 l 1
 114 920 l 1
 444 920 l 1
 771 276 l 1
454 -373 m 1
 1049 920 l 1
 1072 920 l 1
 472 -383 l 2
 435 -462 384 -515 298 -515 c 0
 218 -515 141 -462 141 -366 c 0
 141 -280 207 -208 301 -208 c 0
 386 -208 455 -279 454 -373 c 1
EndSplineSet
EndChar

StartChar: z
Encoding: 122 122 63
GlifName: z
Width: 968
VWidth: 2309
Flags: HMW
LayerCount: 2
Fore
SplineSet
421 902 m 2
 233 902 140 778 110 576 c 1
 92 576 l 1
 92 920 l 1
 892 920 l 1
 892 902 l 1
 351 18 l 1
 548 18 l 2
 782 18 875 120 905 368 c 1
 924 368 l 1
 924 0 l 1
 36 0 l 1
 36 18 l 1
 575 902 l 1
 421 902 l 2
EndSplineSet
EndChar

StartChar: comma
Encoding: 44 44 65
GlifName: comma
Width: 549
Flags: HMW
LayerCount: 2
Fore
SplineSet
80 158 m 0
 80 254 168 336 274 336 c 0
 382 336 474 244 474 68 c 0
 474 -132 316 -305 76 -305 c 1
 76 -287 l 1
 298 -287 491 -117 449 144 c 1
 432 59 356 -20 258 -20 c 0
 148 -20 80 62 80 158 c 0
EndSplineSet
EndChar

StartChar: exclam
Encoding: 33 33 67
GlifName: exclam
Width: 755
Flags: HMW
LayerCount: 2
Fore
SplineSet
554 1278 m 0
 532 986 386 766 386 516 c 1
 367 516 l 1
 367 766 220 986 198 1278 c 0
 197 1292 198 1304 198 1316 c 0
 198 1428 252 1516 376 1516 c 0
 500 1516 556 1428 556 1316 c 0
 556 1304 555 1292 554 1278 c 0
EndSplineSet
Refer: 1 46 N 1 0 0 1 118 0 2
EndChar

StartChar: quotesingle
Encoding: 39 39 70
GlifName: quotesingle
Width: 519
Flags: HMW
LayerCount: 2
Fore
SplineSet
418 1322 m 24
 396 1172 270 1126 270 906 c 1
 251 906 l 1
 251 1126 124 1172 102 1322 c 24
 100 1336 100 1346 100 1358 c 0
 100 1456 172 1520 260 1520 c 0
 348 1520 420 1456 420 1358 c 0
 420 1346 420 1336 418 1322 c 24
EndSplineSet
EndChar

StartChar: question
Encoding: 63 63 75
GlifName: question
Width: 1169
Flags: HMW
LayerCount: 2
Fore
SplineSet
495 717 m 1
 679 771 748 934 748 1120 c 0
 748 1308 720 1493 522 1493 c 0
 330 1493 177 1342 156 1236 c 1
 168 1260 215 1300 283 1300 c 0
 371 1300 448 1245 448 1150 c 0
 448 1045 374 988 284 988 c 0
 184 988 120 1055 120 1162 c 0
 120 1336 308 1520 572 1520 c 0
 874 1520 1070 1360 1070 1120 c 0
 1070 890 845 724 513 706 c 1
 513 488 l 1
 495 488 l 1
 495 717 l 1
EndSplineSet
Refer: 1 46 N 1 0 0 1 278 0 2
EndChar

StartChar: parenleft
Encoding: 40 40 76
GlifName: parenleft
Width: 745
Flags: HMW
LayerCount: 2
Fore
SplineSet
715 -327 m 1
 706 -340 l 1
 380 -200 130 184 130 650 c 0
 130 1116 380 1460 706 1600 c 1
 715 1587 l 1
 517 1457 439 1034 439 650 c 0
 439 266 517 -197 715 -327 c 1
EndSplineSet
EndChar

StartChar: at
Encoding: 64 64 79
GlifName: at
Width: 2019
VWidth: 2309
Flags: HMW
LayerCount: 2
Fore
SplineSet
1169 717 m 0
 1169 405 1020 140 790 140 c 0
 620 140 488 252 488 460 c 0
 488 760 707 1058 951 1058 c 0
 1131 1058 1169 881 1169 717 c 0
1152 692 m 0
 1152 776 1144 975 1043 975 c 0
 936 975 810 720 810 472 c 0
 810 338 840 224 916 224 c 0
 1024 224 1152 446 1152 692 c 0
1110 420 m 2
 1254 1040 l 1
 1554 1040 l 1
 1407 408 l 2
 1393 346 1334 180 1455 180 c 0
 1684 180 1892 465 1892 802 c 0
 1892 1160 1667 1562 1169 1562 c 0
 598 1562 128 1038 128 422 c 0
 128 -194 482 -410 838 -410 c 0
 1162 -410 1387 -311 1557 -116 c 1
 1570 -128 l 1
 1402 -324 1164 -428 838 -428 c 0
 472 -428 110 -207 110 422 c 0
 110 1048 584 1580 1170 1580 c 0
 1676 1580 1910 1168 1910 802 c 0
 1910 472 1724 136 1352 136 c 0
 1114 136 1082 296 1110 420 c 2
EndSplineSet
EndChar

StartChar: dollar
Encoding: 36 36 80
GlifName: dollar
Width: 1189
Flags: HMW
LayerCount: 2
Fore
SplineSet
637 1660 m 1
 656 1660 l 1
 656 -160 l 1
 637 -160 l 1
 637 1660 l 1
479 1660 m 1
 499 1660 l 1
 499 -160 l 1
 479 -160 l 1
 479 1660 l 1
1014 1269 m 1
 979 1396 810 1499 614 1499 c 0
 442 1499 320 1400 320 1256 c 0
 320 904 1110 1010 1110 440 c 0
 1110 160 904 -30 592 -30 c 0
 222 -30 55 160 55 310 c 0
 55 422 122 504 230 504 c 0
 310 504 388 440 388 332 c 0
 388 232 296 182 218 182 c 0
 160 182 109 212 88 253 c 1
 121 139 269 -11 581 -11 c 0
 793 -11 900 110 900 284 c 0
 900 676 110 530 110 1110 c 0
 110 1360 360 1520 602 1520 c 0
 836 1520 1050 1392 1050 1210 c 0
 1050 1098 988 1026 880 1026 c 0
 800 1026 722 1078 722 1183 c 0
 722 1280 801 1338 879 1338 c 0
 933 1338 986 1312 1014 1269 c 1
EndSplineSet
EndChar

StartChar: numbersign
Encoding: 35 35 81
GlifName: numbersign
Width: 1266
Flags: HMW
LayerCount: 2
Fore
SplineSet
60 510 m 1
 1146 510 l 1
 1146 491 l 1
 60 491 l 1
 60 510 l 1
120 1039 m 1
 1207 1039 l 1
 1207 1021 l 1
 120 1021 l 1
 120 1039 l 1
905 1508 m 1
 923 1510 l 1
 723 -10 l 1
 705 -12 l 1
 905 1508 l 1
524 1510 m 1
 542 1510 l 1
 342 -10 l 1
 324 -10 l 1
 524 1510 l 1
EndSplineSet
EndChar

StartChar: slash
Encoding: 47 47 82
GlifName: slash
Width: 1041
Flags: HMW
LayerCount: 2
Fore
SplineSet
945 1560 m 1
 963 1560 l 1
 98 -300 l 1
 80 -300 l 1
 945 1560 l 1
EndSplineSet
EndChar

StartChar: percent
Encoding: 37 37 83
GlifName: percent
Width: 2039
Flags: HMW
LayerCount: 2
Fore
SplineSet
1400 420 m 0
 1400 150 1432 -1 1530 -1 c 0
 1628 -1 1660 150 1660 420 c 0
 1660 690 1628 842 1530 842 c 0
 1432 842 1400 690 1400 420 c 0
1090 420 m 0
 1090 706 1304 860 1530 860 c 0
 1756 860 1970 706 1970 420 c 0
 1970 134 1716 -20 1530 -20 c 0
 1304 -20 1090 134 1090 420 c 0
1533 1500 m 1
 1554 1500 l 1
 507 0 l 1
 486 0 l 1
 1533 1500 l 1
380 1080 m 0
 380 810 412 658 510 658 c 0
 608 658 640 810 640 1080 c 0
 640 1350 608 1501 510 1501 c 0
 412 1501 380 1350 380 1080 c 0
70 1080 m 0
 70 1366 284 1520 510 1520 c 0
 736 1520 950 1366 950 1080 c 0
 950 794 696 640 510 640 c 0
 284 640 70 794 70 1080 c 0
EndSplineSet
EndChar

StartChar: hyphen
Encoding: 45 45 85
GlifName: hyphen
Width: 719
Flags: HMW
LayerCount: 2
Fore
SplineSet
120 559 m 1
 600 559 l 1
 600 541 l 1
 120 541 l 1
 120 559 l 1
EndSplineSet
EndChar

StartChar: plus
Encoding: 43 43 87
GlifName: plus
Width: 1059
Flags: HMW
LayerCount: 2
Fore
SplineSet
521 220 m 1
 521 1040 l 1
 539 1040 l 1
 539 220 l 1
 521 220 l 1
120 641 m 1
 940 641 l 1
 940 623 l 1
 120 623 l 1
 120 641 l 1
EndSplineSet
EndChar

StartChar: less
Encoding: 60 60 89
GlifName: less
Width: 1119
Flags: HMW
LayerCount: 2
Fore
SplineSet
120 769 m 1
 120 787 l 1
 1000 1204 l 1
 1000 1186 l 1
 120 769 l 1
120 764 m 1
 120 782 l 1
 1000 364 l 1
 1000 346 l 1
 120 764 l 1
EndSplineSet
EndChar

StartChar: backslash
Encoding: 92 92 91
GlifName: backslash
Width: 1041
Flags: HMW
LayerCount: 2
Fore
SplineSet
100 1560 m 1
 963 -300 l 1
 943 -300 l 1
 80 1560 l 1
 100 1560 l 1
EndSplineSet
EndChar

StartChar: bracketleft
Encoding: 91 91 92
GlifName: bracketleft
Width: 709
Flags: HMW
LayerCount: 2
Fore
SplineSet
650 -300 m 1
 110 -300 l 1
 110 -282 l 1
 650 -282 l 1
 650 -300 l 1
650 1542 m 1
 110 1542 l 1
 110 1560 l 1
 650 1560 l 1
 650 1542 l 1
410 1560 m 1
 410 -300 l 1
 110 -300 l 1
 110 1560 l 1
 410 1560 l 1
EndSplineSet
EndChar

StartChar: braceleft
Encoding: 123 123 93
GlifName: braceleft
Width: 663
VWidth: 2309
Flags: HMW
LayerCount: 2
Fore
SplineSet
604 1560 m 1
 604 1542 l 1
 480 1542 416 1420 416 1294 c 0
 416 1162 483 1072 483 892 c 0
 483 726 378 668 110 628 c 1
 110 640 l 1
 170 660 230 710 230 792 c 0
 230 918 110 1008 110 1262 c 0
 110 1460 224 1560 604 1560 c 1
604 -300 m 1
 224 -300 110 -198 110 0 c 0
 110 254 230 344 230 470 c 0
 230 552 170 601 110 621 c 1
 110 634 l 1
 378 594 483 536 483 370 c 0
 483 190 416 100 416 -32 c 0
 416 -158 480 -282 604 -282 c 1
 604 -300 l 1
EndSplineSet
EndChar

StartChar: bar
Encoding: 124 124 96
GlifName: bar
Width: 466
VWidth: 2309
Flags: HMW
LayerCount: 2
Fore
SplineSet
224 1560 m 1
 243 1560 l 1
 243 -500 l 1
 224 -500 l 1
 224 1560 l 1
EndSplineSet
EndChar

StartChar: cent
Encoding: 162 162 98
GlifName: cent
Width: 1051
VWidth: 2309
Flags: HMW
LayerCount: 2
Fore
SplineSet
587 1110 m 1
 587 -170 l 1
 569 -170 l 1
 569 1110 l 1
 587 1110 l 1
EndSplineSet
Refer: 40 99 N 1 0 0 1 0 0 2
EndChar

StartChar: sterling
Encoding: 163 163 99
GlifName: sterling
Width: 1311
VWidth: 2309
Flags: HMW
LayerCount: 2
Fore
SplineSet
1264 434 m 1
 1264 44 1122 -60 894 -60 c 0
 620 -60 500 60 374 60 c 0
 292 60 184 20 164 -40 c 1
 153 -40 l 1
 183 108 348 314 544 314 c 0
 724 314 810 246 942 246 c 0
 1080 246 1246 270 1246 434 c 1
 1264 434 l 1
930 805 m 1
 930 786 l 1
 30 786 l 1
 30 805 l 1
 930 805 l 1
196 1100 m 0
 196 1380 416 1520 768 1520 c 0
 1092 1520 1264 1331 1264 1167 c 0
 1264 1055 1190 978 1095 978 c 0
 1005 978 912 1040 912 1150 c 0
 912 1250 998 1320 1086 1320 c 0
 1156 1320 1194 1278 1209 1257 c 1
 1177 1365 1041 1492 816 1492 c 0
 608 1492 538 1338 538 1170 c 0
 538 972 650 880 650 710 c 0
 650 340 137 340 163 -40 c 1
 144 -40 l 1
 106 238 358 394 358 522 c 0
 358 750 196 870 196 1100 c 0
EndSplineSet
EndChar

StartChar: section
Encoding: 167 167 101
GlifName: section
Width: 952
VWidth: 2309
Flags: HMW
LayerCount: 2
Fore
SplineSet
271 1306 m 0
 271 1084 875 1081 875 775 c 0
 875 631 756 583 658 521 c 1
 646 526 l 1
 696 563 730 587 730 653 c 0
 730 875 134 832 134 1196 c 0
 134 1404 309 1520 499 1520 c 0
 665 1520 867 1453 867 1241 c 0
 867 1149 807 1077 717 1077 c 0
 637 1077 579 1137 579 1219 c 0
 579 1293 645 1356 723 1356 c 0
 773 1356 813 1329 829 1305 c 1
 795 1442 648 1501 499 1501 c 0
 380 1501 271 1415 271 1306 c 0
873 324 m 0
 873 116 708 -20 458 -20 c 0
 282 -20 60 50 60 262 c 0
 60 354 120 426 210 426 c 0
 290 426 348 366 348 284 c 0
 348 210 284 151 206 151 c 0
 150 151 110 185 98 209 c 1
 129 61 298 -1 458 -1 c 0
 644 -1 722 116 722 202 c 0
 722 424 96 404 96 700 c 0
 96 854 214 938 292 990 c 1
 312 990 l 1
 282 966 247 930 247 860 c 0
 247 638 873 688 873 324 c 0
EndSplineSet
EndChar

StartChar: asciitilde
Encoding: 126 126 104
GlifName: asciitilde
Width: 1375
VWidth: 2309
Flags: HMW
LayerCount: 2
Fore
SplineSet
414 844 m 0
 309 844 218 800 218 686 c 1
 200 686 l 1
 200 916 320 1050 498 1050 c 0
 718 1050 742 862 942 862 c 0
 1067 862 1158 906 1158 1020 c 1
 1176 1020 l 1
 1176 790 1056 656 878 656 c 0
 624 656 628 844 414 844 c 0
EndSplineSet
EndChar

StartChar: copyright
Encoding: 169 169 105
GlifName: copyright
Width: 1739
Flags: HMW
LayerCount: 2
Fore
SplineSet
100 750 m 0
 100 1176 444 1520 870 1520 c 0
 1296 1520 1640 1176 1640 750 c 0
 1640 324 1296 -20 870 -20 c 0
 444 -20 100 324 100 750 c 0
118 750 m 0
 118 335 455 -1 870 -1 c 0
 1285 -1 1622 335 1622 750 c 0
 1622 1165 1285 1501 870 1501 c 0
 455 1501 118 1165 118 750 c 0
EndSplineSet
Refer: 14 67 N 0.6 0 0 0.6 397 300 2
EndChar

StartChar: registered
Encoding: 174 174 106
GlifName: registered
Width: 1739
Flags: HMW
LayerCount: 2
Fore
SplineSet
100 750 m 0
 100 1176 444 1520 870 1520 c 0
 1296 1520 1640 1176 1640 750 c 0
 1640 324 1296 -20 870 -20 c 0
 444 -20 100 324 100 750 c 0
118 750 m 0
 118 335 455 -1 870 -1 c 0
 1285 -1 1622 335 1622 750 c 0
 1622 1165 1285 1501 870 1501 c 0
 455 1501 118 1165 118 750 c 0
EndSplineSet
Refer: 29 82 N 0.6 0 0 0.6 442 296 2
EndChar

StartChar: logicalnot
Encoding: 172 172 107
GlifName: logicalnot
Width: 971
Flags: HMW
LayerCount: 2
Fore
SplineSet
833 1211 m 1
 120 1211 l 1
 120 1230 l 1
 852 1230 l 1
 852 826 l 1
 833 826 l 1
 833 1211 l 1
EndSplineSet
EndChar

StartChar: guillemotleft
Encoding: 171 171 108
GlifName: guillemotleft
Width: 1449
Flags: HMW
LayerCount: 2
Fore
SplineSet
981 776 m 1
 1339 299 l 1
 1330 290 l 1
 610 758 l 1
 610 792 l 1
 1330 1260 l 1
 1339 1251 l 1
 981 776 l 1
402 776 m 1
 779 299 l 1
 770 290 l 1
 50 758 l 1
 50 792 l 1
 770 1260 l 1
 779 1251 l 1
 402 776 l 1
EndSplineSet
EndChar

StartChar: mu
Encoding: 181 181 111
GlifName: mu
Width: 1245
VWidth: 2309
Flags: HMW
LayerCount: 2
Fore
SplineSet
511 -246 m 0
 577 -246 629 -304 629 -380 c 0
 629 -458 587 -520 441 -520 c 0
 301 -520 181 -422 181 -242 c 2
 181 642 l 1
 199 642 l 1
 199 -242 l 2
 199 -412 313 -517 477 -500 c 1
 477 -503 l 1
 428 -481 391 -436 391 -368 c 0
 391 -302 445 -246 511 -246 c 0
EndSplineSet
Refer: 58 117 N 1 0 0 1 0 0 2
EndChar

StartChar: asciicircum
Encoding: 94 94 113
GlifName: asciicircum
Width: 1089
Flags: HMW
LayerCount: 2
Fore
SplineSet
544 1446 m 1
 212 1250 l 1
 200 1260 l 1
 480 1540 l 1
 610 1540 l 1
 890 1260 l 1
 878 1250 l 1
 544 1446 l 1
EndSplineSet
EndChar

StartChar: degree
Encoding: 176 176 115
GlifName: degree
Width: 639
Flags: HMW
LayerCount: 2
Fore
SplineSet
80 1360 m 0
 80 1492 188 1600 320 1600 c 0
 452 1600 560 1492 560 1360 c 0
 560 1228 452 1120 320 1120 c 0
 188 1120 80 1228 80 1360 c 0
134 1360 m 0
 134 1254 214 1174 320 1174 c 0
 426 1174 505 1254 505 1360 c 0
 505 1466 426 1545 320 1545 c 0
 214 1545 134 1466 134 1360 c 0
EndSplineSet
EndChar

StartChar: onequarter
Encoding: 188 188 119
GlifName: onequarter
Width: 1341
Flags: HMW
LayerCount: 2
Fore
SplineSet
1046 1300 m 1
 1064 1300 l 1
 101 -200 l 1
 82 -200 l 1
 1046 1300 l 1
EndSplineSet
Refer: 6 52 N 0.6 0 0 0.6 540 -206 2
Refer: 3 49 N 0.6 0 0 0.6 -16 712 2
EndChar

StartChar: onehalf
Encoding: 189 189 120
GlifName: onehalf
Width: 1399
Flags: HMW
LayerCount: 2
Fore
SplineSet
1043 1300 m 1
 1061 1300 l 1
 97 -200 l 1
 79 -200 l 1
 1043 1300 l 1
EndSplineSet
Refer: 4 50 N 0.6 0 0 0.6 682 -202 2
Refer: 3 49 N 0.6 0 0 0.6 -16 712 2
EndChar

StartChar: threequarters
Encoding: 190 190 121
GlifName: threequarters
Width: 1461
Flags: HMW
LayerCount: 2
Fore
SplineSet
1163 1300 m 1
 1181 1300 l 1
 217 -200 l 1
 199 -200 l 1
 1163 1300 l 1
EndSplineSet
Refer: 5 51 N 0.6 0 0 0.6 10 708 2
Refer: 6 52 N 0.6 0 0 0.6 660 -206 2
EndChar

StartChar: grave
Encoding: 96 96 123
GlifName: grave
Width: 819
Flags: HMW
LayerCount: 2
Fore
SplineSet
240 1401 m 2
 173 1391 110 1442 110 1510 c 0
 110 1578 183 1645 260 1616 c 2
 705 1459 l 1
 700 1441 l 1
 240 1401 l 2
EndSplineSet
EndChar

StartChar: acute
Encoding: 180 180 124
GlifName: acute
Width: 819
Flags: HMW
LayerCount: 2
Fore
SplineSet
580 1401 m 2
 120 1441 l 1
 115 1459 l 1
 560 1616 l 2
 637 1645 710 1578 710 1510 c 0
 710 1442 647 1391 580 1401 c 2
EndSplineSet
EndChar

StartChar: cedilla
Encoding: 184 184 128
GlifName: cedilla
Width: 1099
Flags: HMW
LayerCount: 2
Fore
SplineSet
618 -279 m 0
 618 -175 532 -158 432 -158 c 1
 612 82 l 1
 636 82 l 1
 516 -78 l 1
 706 -84 840 -128 840 -240 c 0
 840 -340 744 -426 442 -426 c 1
 442 -407 l 1
 560 -407 618 -354 618 -279 c 0
EndSplineSet
EndChar

StartChar: divide
Encoding: 247 247 131
GlifName: divide
Width: 1219
Flags: HMW
LayerCount: 2
Fore
SplineSet
90 799 m 1
 1129 799 l 1
 1129 781 l 1
 90 781 l 1
 90 799 l 1
430 390 m 0
 430 489 511 570 610 570 c 0
 709 570 790 489 790 390 c 0
 790 291 709 210 610 210 c 0
 511 210 430 291 430 390 c 0
430 1160 m 0
 430 1259 511 1340 610 1340 c 0
 709 1340 790 1259 790 1160 c 0
 790 1061 709 980 610 980 c 0
 511 980 430 1061 430 1160 c 0
EndSplineSet
EndChar

StartChar: ring
Encoding: 730 730 271
GlifName: ring
Width: 639
VWidth: 0
Flags: HMW
LayerCount: 2
Fore
SplineSet
120 1360 m 0
 120 1462 198 1540 320 1540 c 0
 442 1540 520 1462 520 1360 c 0
 520 1258 442 1180 320 1180 c 0
 198 1180 120 1258 120 1360 c 0
241 1360 m 0
 241 1262 260 1198 320 1198 c 0
 380 1198 399 1262 399 1360 c 0
 399 1458 380 1522 320 1522 c 0
 260 1522 241 1458 241 1360 c 0
EndSplineSet
EndChar

StartChar: tilde
Encoding: 732 732 272
GlifName: tilde
Width: 895
VWidth: 0
Flags: HMW
LayerCount: 2
Fore
SplineSet
242 1308 m 0
 170 1308 118 1264 118 1190 c 1
 100 1190 l 1
 100 1360 172 1484 300 1484 c 0
 463 1484 526 1326 653 1326 c 0
 733 1326 778 1370 778 1444 c 1
 796 1444 l 1
 796 1254 764 1150 616 1150 c 0
 459 1150 383 1308 242 1308 c 0
EndSplineSet
EndChar

StartChar: AE
Encoding: 198 198 274
GlifName: A_E_
Width: 2096
Flags: HMW
LayerCount: 2
Fore
SplineSet
1046 1500 m 1
 1066 1500 l 1
 224 0 l 1
 202 0 l 1
 1046 1500 l 1
30 18 m 1
 470 18 l 1
 470 0 l 1
 30 0 l 1
 30 18 l 1
492 499 m 1
 1070 499 l 1
 1070 481 l 1
 488 481 l 1
 492 499 l 1
1050 1500 m 1
 1360 1500 l 1
 1360 0 l 1
 1050 0 l 1
 1050 1500 l 1
1050 1500 m 1
 2017 1500 l 1
 2017 1090 l 1
 1999 1090 l 1
 1969 1304 1824 1482 1600 1482 c 2
 1050 1482 l 1
 1050 1500 l 1
2037 0 m 1
 870 0 l 1
 870 18 l 1
 1580 18 l 2
 1844 18 1989 196 2019 450 c 1
 2037 450 l 1
 2037 0 l 1
1689 526 m 1
 1659 660 1544 767 1430 767 c 2
 1310 767 l 1
 1310 785 l 1
 1430 785 l 2
 1544 785 1659 882 1689 1016 c 1
 1707 1016 l 1
 1707 526 l 1
 1689 526 l 1
EndSplineSet
EndChar

StartChar: ae
Encoding: 230 230 277
GlifName: ae
Width: 1665
VWidth: 2309
Flags: HMW
LayerCount: 2
Fore
SplineSet
140 722 m 0
 140 851 314 936 516 936 c 0
 776 936 882 792 882 610 c 1
 872 362 l 1
 872 114 672 -20 440 -20 c 0
 222 -20 70 58 70 226 c 0
 70 394 224 517 508 517 c 2
 816 517 l 1
 816 498 l 1
 578 498 l 2
 456 498 374 385 374 241 c 0
 374 107 419 3 499 3 c 0
 583 3 652 130 652 312 c 2
 652 610 l 2
 652 744 623 912 463 912 c 0
 373 912 286 879 245 840 c 1
 355 881 462 820 462 726 c 0
 462 636 374 582 294 582 c 0
 204 582 140 640 140 722 c 0
1317 525 m 1
 1315 699 1303 921 1175 921 c 0
 1037 921 1000 708 1000 480 c 0
 1000 252 1038 8 1230 8 c 0
 1414 8 1548 126 1598 286 c 1
 1616 286 l 1
 1564 112 1423 -20 1181 -20 c 0
 929 -20 750 150 750 460 c 0
 750 770 923 940 1175 940 c 0
 1473 940 1614 725 1614 507 c 1
 886 507 l 1
 886 525 l 1
 1317 525 l 1
EndSplineSet
EndChar

StartChar: perthousand
Encoding: 8240 8240 285
GlifName: perthousand
Width: 3019
Flags: HMW
LayerCount: 2
Fore
SplineSet
2380 420 m 0
 2380 150 2412 -5 2510 -5 c 0
 2608 -5 2640 150 2640 420 c 0
 2640 690 2608 846 2510 846 c 0
 2412 846 2380 690 2380 420 c 0
2070 420 m 0
 2070 706 2284 860 2510 860 c 0
 2736 860 2950 706 2950 420 c 0
 2950 134 2696 -20 2510 -20 c 0
 2284 -20 2070 134 2070 420 c 0
1400 420 m 0
 1400 150 1432 -5 1530 -5 c 0
 1628 -5 1660 150 1660 420 c 0
 1660 690 1628 846 1530 846 c 0
 1432 846 1400 690 1400 420 c 0
1090 420 m 0
 1090 706 1304 860 1530 860 c 0
 1756 860 1970 706 1970 420 c 0
 1970 134 1716 -20 1530 -20 c 0
 1304 -20 1090 134 1090 420 c 0
1534 1500 m 1
 1552 1500 l 1
 506 0 l 1
 488 0 l 1
 1534 1500 l 1
380 1080 m 0
 380 810 412 654 510 654 c 0
 608 654 640 810 640 1080 c 0
 640 1350 608 1505 510 1505 c 0
 412 1505 380 1350 380 1080 c 0
70 1080 m 0
 70 1366 284 1520 510 1520 c 0
 736 1520 950 1366 950 1080 c 0
 950 794 696 640 510 640 c 0
 284 640 70 794 70 1080 c 0
EndSplineSet
EndChar

StartChar: uni2031
Encoding: 8241 8241 286
GlifName: uni2031
Width: 4009
Flags: HMW
LayerCount: 2
Fore
SplineSet
3370 420 m 0
 3370 150 3402 -5 3500 -5 c 0
 3598 -5 3630 150 3630 420 c 0
 3630 690 3598 846 3500 846 c 0
 3402 846 3370 690 3370 420 c 0
3060 420 m 0
 3060 706 3274 860 3500 860 c 0
 3726 860 3940 706 3940 420 c 0
 3940 134 3686 -20 3500 -20 c 0
 3274 -20 3060 134 3060 420 c 0
2380 420 m 0
 2380 150 2412 -5 2510 -5 c 0
 2608 -5 2640 150 2640 420 c 0
 2640 690 2608 846 2510 846 c 0
 2412 846 2380 690 2380 420 c 0
2070 420 m 0
 2070 706 2284 860 2510 860 c 0
 2736 860 2950 706 2950 420 c 0
 2950 134 2696 -20 2510 -20 c 0
 2284 -20 2070 134 2070 420 c 0
1400 420 m 0
 1400 150 1432 -5 1530 -5 c 0
 1628 -5 1660 150 1660 420 c 0
 1660 690 1628 846 1530 846 c 0
 1432 846 1400 690 1400 420 c 0
1090 420 m 0
 1090 706 1304 860 1530 860 c 0
 1756 860 1970 706 1970 420 c 0
 1970 134 1716 -20 1530 -20 c 0
 1304 -20 1090 134 1090 420 c 0
1534 1500 m 1
 1552 1500 l 1
 506 0 l 1
 488 0 l 1
 1534 1500 l 1
380 1080 m 0
 380 810 412 654 510 654 c 0
 608 654 640 810 640 1080 c 0
 640 1350 608 1505 510 1505 c 0
 412 1505 380 1350 380 1080 c 0
70 1080 m 0
 70 1366 284 1520 510 1520 c 0
 736 1520 950 1366 950 1080 c 0
 950 794 696 640 510 640 c 0
 284 640 70 794 70 1080 c 0
EndSplineSet
EndChar

StartChar: uniFB00
Encoding: 64256 64256 290
GlifName: uniF_B_00
Width: 1440
VWidth: 2309
Flags: HMW
LayerCount: 2
Fore
SplineSet
36 18 m 1
 1351 18 l 1
 1351 0 l 1
 36 0 l 1
 36 18 l 1
36 920 m 1
 1391 920 l 1
 1391 902 l 1
 36 902 l 1
 36 920 l 1
977 1267 m 1
 960 1330 862 1400 741 1400 c 0
 578 1400 486 1234 486 980 c 2
 486 0 l 1
 216 0 l 1
 216 924 l 2
 216 1206 429 1420 731 1420 c 0
 905 1420 1029 1297 1029 1183 c 0
 1029 1081 965 1019 875 1019 c 0
 795 1019 713 1070 713 1169 c 0
 713 1267 779 1321 862 1321 c 0
 922 1321 971 1284 977 1267 c 1
1558 1379 m 1
 1538 1424 1462 1500 1338 1500 c 0
 1178 1500 1114 1334 1114 1080 c 2
 1114 0 l 1
 844 0 l 1
 844 1024 l 2
 844 1306 1038 1520 1328 1520 c 0
 1500 1520 1604 1406 1604 1292 c 0
 1604 1190 1540 1128 1450 1128 c 0
 1370 1128 1288 1178 1288 1277 c 0
 1288 1375 1359 1430 1441 1430 c 0
 1496 1430 1535 1413 1558 1379 c 1
EndSplineSet
Ligature2: "'liga' Standard Ligatures lookup 0-1" f f
LCarets2: 1 0
EndChar

StartChar: uniFB01
Encoding: 64257 64257 291
GlifName: uniF_B_01
Width: 1280
VWidth: 2309
Flags: HMW
LayerCount: 2
Fore
SplineSet
216 1024 m 2
 216 1316 422 1520 772 1520 c 0
 983 1520 1100 1409 1100 1284 c 0
 1100 1182 1035 1120 945 1120 c 0
 864 1120 783 1173 783 1269 c 0
 783 1365 854 1420 936 1420 c 0
 996 1420 1031 1393 1052 1365 c 1
 1014 1437 936 1501 772 1501 c 0
 555 1501 486 1334 486 1080 c 2
 486 0 l 1
 216 0 l 1
 216 1024 l 2
36 18 m 1
 1234 18 l 1
 1234 0 l 1
 36 0 l 1
 36 18 l 1
814 902 m 1
 36 902 l 1
 36 920 l 1
 1094 920 l 1
 1094 0 l 1
 814 0 l 1
 814 902 l 1
EndSplineSet
Ligature2: "'liga' Standard Ligatures lookup 0-1" f i
LCarets2: 1 0
EndChar

StartChar: uniFB02
Encoding: 64258 64258 292
GlifName: uniF_B_02
Width: 1383
VWidth: 2309
Flags: HMW
LayerCount: 2
Fore
SplineSet
36 18 m 1
 1339 18 l 1
 1339 0 l 1
 36 0 l 1
 36 18 l 1
36 920 m 1
 762 920 l 1
 762 902 l 1
 36 902 l 1
 36 920 l 1
895 1460 m 1
 1175 1540 l 1
 1175 0 l 1
 895 0 l 1
 895 1460 l 1
949 1353 m 1
 934 1422 848 1500 719 1500 c 0
 543 1500 486 1334 486 1080 c 2
 486 0 l 1
 216 0 l 1
 216 1024 l 2
 216 1306 419 1520 709 1520 c 0
 881 1520 985 1408 985 1286 c 0
 985 1184 922 1122 832 1122 c 0
 752 1122 669 1171 669 1271 c 0
 669 1370 736 1425 821 1425 c 0
 893 1425 929 1390 949 1353 c 1
EndSplineSet
Ligature2: "'liga' Standard Ligatures lookup 0-1" f l
LCarets2: 1 0
EndChar

StartChar: uniFB03
Encoding: 64259 64259 293
GlifName: uniF_B_03
Width: 1888
VWidth: 2309
Flags: HMW
LayerCount: 2
Fore
SplineSet
824 1024 m 2
 824 1316 1031 1521 1380 1521 c 0
 1591 1521 1707 1409 1707 1284 c 0
 1707 1182 1643 1120 1553 1120 c 0
 1472 1120 1391 1173 1391 1269 c 0
 1391 1365 1460 1421 1542 1421 c 0
 1609 1421 1643 1392 1658 1380 c 5
 1627 1434 1545 1501 1380 1501 c 0
 1164 1501 1094 1339 1094 1081 c 2
 1094 0 l 1
 824 0 l 1
 824 1024 l 2
36 18 m 1
 1842 18 l 1
 1842 0 l 1
 36 0 l 1
 36 18 l 1
216 924 m 2
 216 1204 427 1420 731 1420 c 0
 905 1420 1029 1299 1029 1183 c 0
 1029 1081 965 1019 875 1019 c 0
 795 1019 713 1070 713 1169 c 0
 713 1267 779 1322 861 1322 c 0
 923 1322 965 1287 972 1268 c 1
 949 1327 863 1399 741 1399 c 0
 577 1399 486 1234 486 980 c 2
 486 0 l 1
 216 0 l 1
 216 924 l 2
1422 902 m 1
 36 902 l 1
 36 920 l 1
 1702 920 l 1
 1702 0 l 1
 1422 0 l 1
 1422 902 l 1
EndSplineSet
Ligature2: "'liga' Standard Ligatures lookup 0-1" f f i
LCarets2: 2 0 0
EndChar

StartChar: uniFB04
Encoding: 64260 64260 294
GlifName: uniF_B_04
Width: 2004
VWidth: 2309
Flags: HMW
LayerCount: 2
Fore
SplineSet
36 18 m 1
 1963 18 l 1
 1963 0 l 1
 36 0 l 1
 36 18 l 1
36 920 m 1
 1386 920 l 1
 1386 902 l 1
 36 902 l 1
 36 920 l 1
1519 1460 m 1
 1799 1540 l 1
 1799 0 l 1
 1519 0 l 1
 1519 1460 l 1
978 1269 m 1
 955 1328 859 1400 738 1400 c 0
 576 1400 486 1234 486 980 c 2
 486 0 l 1
 216 0 l 1
 216 924 l 2
 216 1205 428 1420 729 1420 c 0
 903 1420 1025 1297 1025 1183 c 0
 1025 1081 961 1019 871 1019 c 0
 791 1019 709 1070 709 1169 c 0
 709 1267 775 1321 857 1321 c 0
 918 1321 967 1290 978 1269 c 1
1573 1358 m 5
 1556 1432 1459 1501 1343 1501 c 0
 1167 1501 1110 1334 1110 1080 c 2
 1110 0 l 1
 840 0 l 1
 840 1024 l 2
 840 1306 1043 1520 1333 1520 c 0
 1505 1520 1608 1408 1608 1286 c 0
 1608 1184 1544 1122 1454 1122 c 0
 1374 1122 1292 1171 1292 1271 c 0
 1292 1370 1359 1424 1444 1424 c 0
 1518 1424 1552 1396 1573 1358 c 5
EndSplineSet
Ligature2: "'liga' Standard Ligatures lookup 0-1" f f l
LCarets2: 2 0 0
EndChar

StartChar: ogonek
Encoding: 731 731 295
GlifName: ogonek
Width: 1099
Flags: HMW
LayerCount: 2
Fore
SplineSet
801 -246 m 1
 771 -302 723 -392 551 -392 c 0
 419 -392 305 -340 305 -220 c 0
 305 -60 500 44 652 89 c 1
 659 77 l 1
 617 53 571 -36 571 -166 c 0
 571 -275 615 -335 673 -335 c 0
 729 -335 757 -293 788 -238 c 1
 801 -246 l 1
EndSplineSet
EndChar

StartChar: dotlessi
Encoding: 305 305 296
GlifName: dotlessi
Width: 649
VWidth: 2309
Flags: HMW
LayerCount: 2
Fore
SplineSet
45 18 m 1
 605 18 l 1
 605 0 l 1
 45 0 l 1
 45 18 l 1
185 902 m 1
 45 902 l 1
 45 920 l 1
 465 920 l 1
 465 0 l 1
 185 0 l 1
 185 902 l 1
EndSplineSet
EndChar

StartChar: uni0237
Encoding: 567 567 297
GlifName: uni0237
Width: 656
VWidth: 2309
Flags: HMW
LayerCount: 2
Fore
SplineSet
498 920 m 1
 498 -24 l 2
 498 -286 344 -520 64 -520 c 0
 -118 -520 -242 -415 -242 -283 c 0
 -242 -182 -165 -118 -78 -118 c 0
 2 -118 84 -166 84 -266 c 0
 84 -358 19 -418 -85 -418 c 0
 -141 -418 -178 -391 -198 -366 c 1
 -180 -424 -86 -498 39 -498 c 0
 249 -498 215 -212 215 42 c 2
 218 902 l 1
 46 902 l 1
 46 920 l 1
 498 920 l 1
EndSplineSet
EndChar

StartChar: kgreenlandic
Encoding: 312 312 306
GlifName: kgreenlandic
Width: 1288
VWidth: 2309
Flags: HMW
LayerCount: 2
Fore
SplineSet
1189 0 m 1
 845 0 l 1
 448 533 l 1
 991 920 l 1
 1018 920 l 1
 671 666 l 1
 1189 0 l 1
701 18 m 1
 1265 18 l 1
 1265 0 l 1
 701 0 l 1
 701 18 l 1
1167 902 m 1
 721 902 l 1
 721 920 l 1
 1167 920 l 1
 1167 902 l 1
43 18 m 1
 613 18 l 1
 613 0 l 1
 43 0 l 1
 43 18 l 1
224 902 m 1
 43 902 l 1
 43 920 l 1
 503 920 l 1
 503 0 l 1
 224 0 l 1
 224 902 l 1
EndSplineSet
EndChar

StartChar: breve
Encoding: 728 728 307
GlifName: breve
Width: 599
VWidth: 2309
Flags: HMW
LayerCount: 2
Fore
SplineSet
75 1518 m 1
 75 1425 192 1390 300 1390 c 0
 408 1390 525 1425 525 1518 c 1
 540 1518 l 1
 540 1326 470 1200 300 1200 c 0
 130 1200 60 1326 60 1518 c 1
 75 1518 l 1
EndSplineSet
EndChar

StartChar: thorn
Encoding: 254 254 318
GlifName: thorn
Width: 1254
VWidth: 2309
Flags: HMW
LayerCount: 2
Fore
SplineSet
440 460 m 0
 440 757 560 938 769 938 c 0
 985 938 1190 760 1190 460 c 0
 1190 160 985 -20 769 -20 c 0
 561 -20 440 163 440 460 c 0
455 460 m 0
 455 167 582 20 706 20 c 0
 822 20 871 174 871 460 c 0
 871 746 822 898 706 898 c 0
 582 898 455 752 455 460 c 0
35 -482 m 1
 596 -482 l 1
 596 -500 l 1
 35 -500 l 1
 35 -482 l 1
175 1482 m 1
 35 1482 l 1
 35 1500 l 1
 455 1500 l 1
 455 -500 l 1
 175 -500 l 1
 175 1482 l 1
EndSplineSet
EndChar

StartChar: Thorn
Encoding: 222 222 319
GlifName: T_horn
Width: 1339
Flags: HMW
LayerCount: 2
Fore
SplineSet
210 1500 m 1
 520 1500 l 1
 520 0 l 1
 210 0 l 1
 210 1500 l 1
30 18 m 1
 700 18 l 1
 700 0 l 1
 30 0 l 1
 30 18 l 1
30 1500 m 1
 700 1500 l 1
 700 1482 l 1
 30 1482 l 1
 30 1500 l 1
740 360 m 2
 479 360 l 1
 479 378 l 1
 670 378 l 2
 862 378 930 602 930 780 c 0
 930 958 862 1182 670 1182 c 2
 479 1182 l 1
 479 1200 l 1
 740 1200 l 2
 1102 1200 1271 1040 1271 780 c 0
 1271 520 1102 360 740 360 c 2
EndSplineSet
EndChar

StartChar: Lslash
Encoding: 321 321 324
GlifName: L_slash
Width: 1241
Flags: HMW
LayerCount: 2
Fore
SplineSet
38 720 m 1
 828 1160 l 1
 828 1139 l 1
 38 699 l 1
 38 720 l 1
EndSplineSet
Refer: 23 76 N 1 0 0 1 0 0 2
EndChar

StartChar: lslash
Encoding: 322 322 325
GlifName: lslash
Width: 714
VWidth: 2309
Flags: HMW
LayerCount: 2
Fore
SplineSet
38 760 m 1
 708 1160 l 1
 708 1140 l 1
 38 739 l 1
 38 760 l 1
EndSplineSet
Refer: 49 108 N 1 0 0 1 0 0 2
EndChar

StartChar: eth
Encoding: 240 240 329
GlifName: eth
Width: 1219
VWidth: 2309
Flags: HMW
LayerCount: 2
Fore
SplineSet
260 1260 m 1
 1150 1260 l 1
 1150 1242 l 1
 260 1242 l 1
 260 1260 l 1
1120 620 m 0
 1120 200 904 -20 582 -20 c 0
 260 -20 60 200 60 500 c 0
 60 840 306 985 528 985 c 0
 746 985 806 804 806 560 c 1
 790 560 l 1
 790 822 716 948 584 948 c 0
 456 948 390 818 390 500 c 0
 390 222 418 -1 576 -1 c 0
 734 -1 790 242 790 560 c 1
 791 668 l 1
 791 1036 568 1503 210 1503 c 1
 210 1520 l 1
 725 1520 1120 1126 1120 620 c 0
EndSplineSet
EndChar

StartChar: OE
Encoding: 338 338 330
GlifName: O_E_
Width: 1992
Flags: HMW
LayerCount: 2
Fore
SplineSet
804 1482 m 1025,0,0
430 750 m 0,0,0
 430 356 526 18 804 18 c 1,0,0
 764 0 l 1,0,0
 358 0 80 304 80 750 c 0,0,0
 80 1196 358 1500 764 1500 c 1,0,0
 804 1482 l 1,0,0
 526 1482 430 1144 430 750 c 0,0,0
EndSplineSet
Refer: 16 69 N 1 0 0 1 725 0 2
EndChar

StartChar: germandbls
Encoding: 223 223 332
GlifName: germandbls
Width: 1541
VWidth: 2309
Flags: HMW
LayerCount: 2
Fore
SplineSet
806 807 m 1
 806 819 l 1
 1024 819 1080 1014 1080 1142 c 0
 1080 1286 1024 1502 826 1502 c 0
 578 1502 510 1246 510 962 c 2
 510 0 l 1
 210 0 l 1
 210 982 l 2
 210 1348 510 1520 836 1520 c 0
 1122 1520 1402 1378 1402 1162 c 0
 1402 942 1208 807 806 807 c 1
30 18 m 1
 687 18 l 1
 687 0 l 1
 30 0 l 1
 30 18 l 1
1462 350 m 0
 1462 110 1234 -20 992 -20 c 0
 810 -20 676 108 676 312 c 0
 676 424 760 481 850 481 c 0
 930 481 1008 432 1008 330 c 0
 1008 236 922 180 844 180 c 0
 775 180 714 224 700 281 c 1
 709 111 829 4 962 4 c 0
 1110 4 1140 192 1140 320 c 0
 1140 508 1104 801 806 801 c 1
 806 813 l 1
 1288 813 1462 610 1462 350 c 0
EndSplineSet
EndChar

StartChar: circumflex
Encoding: 710 710 335
GlifName: circumflex
Width: 849
Flags: HMW
LayerCount: 2
Fore
SplineSet
424 1400 m 1
 109 1260 l 1
 100 1270 l 1
 340 1540 l 1
 510 1540 l 1
 750 1270 l 1
 741 1260 l 1
 424 1400 l 1
EndSplineSet
EndChar

StartChar: caron
Encoding: 711 711 336
GlifName: caron
Width: 849
Flags: HMW
LayerCount: 2
Fore
SplineSet
425 1430 m 1
 740 1569 l 1
 750 1560 l 1
 510 1290 l 1
 340 1290 l 1
 100 1560 l 1
 109 1569 l 1
 425 1430 l 1
EndSplineSet
EndChar

StartChar: pi
Encoding: 960 960 337
GlifName: pi
Width: 1261
VWidth: 2309
Flags: HMW
LayerCount: 2
Fore
SplineSet
1192 206 m 1
 1146 66 1070 -20 926 -20 c 0
 792 -20 692 38 692 166 c 2
 692 840 l 1
 972 840 l 1
 972 165 l 2
 972 125 993 87 1049 87 c 0
 1098 87 1139 120 1179 214 c 1
 1192 206 l 1
248 -20 m 0
 146 -20 80 36 80 116 c 0
 80 303 394 214 394 558 c 2
 394 900 l 1
 506 900 l 1
 506 486 l 2
 506 170 414 -20 248 -20 c 0
1152 920 m 1
 1152 640 l 1
 100 640 l 1
 100 490 l 1
 82 490 l 1
 82 920 l 1
 1152 920 l 1
EndSplineSet
EndChar

StartChar: uni1E9E
Encoding: 7838 7838 338
GlifName: uni1E_9E_
Width: 1781
VWidth: 2309
Flags: HMW
LayerCount: 2
Fore
SplineSet
30 18 m 1
 710 18 l 1
 710 0 l 1
 30 0 l 1
 30 18 l 1
1224 788 m 1
 1127 809 1025 822 916 830 c 1
 1397 1430 l 1
 1332 1461 1209 1500 1056 1500 c 0
 668 1500 530 1236 530 862 c 2
 530 0 l 1
 210 0 l 1
 210 882 l 2
 210 1308 580 1520 1056 1520 c 0
 1362 1520 1572 1388 1642 1312 c 1
 1224 788 l 1
722 257 m 1
 744 133 887 8 1092 8 c 0
 1305 8 1375 182 1375 400 c 0
 1375 578 1304 812 916 812 c 1
 916 830 l 1
 1528 830 1702 645 1702 405 c 0
 1702 135 1454 -20 1152 -20 c 0
 838 -20 690 158 690 322 c 0
 690 434 765 507 865 507 c 0
 955 507 1023 443 1023 341 c 0
 1023 247 942 180 854 180 c 0
 790 180 737 223 722 257 c 1
EndSplineSet
EndChar

StartChar: uni203D
Encoding: 8253 8253 339
GlifName: uni203D_
Width: 1319
Flags: HMW
LayerCount: 2
Fore
SplineSet
812 1038 m 0
 790 846 653 626 653 486 c 1
 635 486 l 1
 635 626 538 846 516 1038 c 0
 514 1052 514 1064 514 1076 c 0
 514 1132 550 1226 664 1226 c 0
 778 1226 814 1132 814 1076 c 0
 814 1064 814 1052 812 1038 c 0
130 1112 m 0
 130 1296 328 1520 682 1520 c 0
 984 1520 1240 1370 1240 1100 c 0
 1240 840 936 670 674 670 c 1
 674 684 l 1
 838 695 978 916 978 1120 c 0
 978 1308 854 1485 636 1485 c 0
 356 1485 193 1305 172 1181 c 1
 184 1212 228 1250 294 1250 c 0
 382 1250 438 1170 438 1100 c 0
 438 990 354 938 284 938 c 0
 204 938 130 1000 130 1112 c 0
EndSplineSet
Refer: 1 46 N 1 0 0 1 378 0 2
EndChar

StartChar: R.alt
Encoding: 65536 -1 340
GlifName: R_.alt
Width: 1463
Flags: HMW
LayerCount: 2
Fore
SplineSet
738 764 m 2
 398 764 l 1
 398 777 l 1
 688 777 l 2
 880 777 979 889 979 1127 c 0
 979 1365 880 1482 688 1482 c 2
 38 1482 l 1
 38 1500 l 1
 738 1500 l 2
 1070 1500 1299 1387 1299 1127 c 0
 1299 867 1090 764 738 764 c 2
38 18 m 1
 748 18 l 1
 748 0 l 1
 38 0 l 1
 38 18 l 1
238 1500 m 1
 549 1500 l 1
 549 0 l 1
 238 0 l 1
 238 1500 l 1
1438 0 m 1
 1406 0 1291 0 1219 0 c 0
 693 0 1171 758 679 758 c 2
 398 758 l 1
 398 770 l 1
 839 770 l 2
 1515 770 1112 18 1368 18 c 0
 1410 18 1410 18 1438 18 c 1
 1438 0 l 1
EndSplineSet
EndChar

StartChar: J.alt
Encoding: 65537 -1 341
GlifName: J_.alt
Width: 1266
Flags: HMW
LayerCount: 2
Fore
SplineSet
477 1500 m 1
 1237 1500 l 1
 1237 1482 l 1
 477 1482 l 1
 477 1500 l 1
727 1500 m 1
 1037 1500 l 1
 1037 450 l 1
 977 170 809 -40 457 -40 c 0
 193 -40 35 150 35 330 c 0
 35 484 139 570 249 570 c 0
 349 570 431 504 431 387 c 0
 431 287 348 205 241 205 c 0
 156 205 83 246 57 297 c 1
 77 129 231 -19 437 -19 c 0
 649 -19 727 160 727 440 c 2
 727 1500 l 1
EndSplineSet
EndChar

StartChar: four.alt
Encoding: 65538 -1 342
GlifName: four.alt
Width: 1309
VWidth: 2309
Flags: HMW
LayerCount: 2
Fore
SplineSet
1180 18 m 1
 1180 0 l 1
 530 0 l 1
 530 18 l 1
 1180 18 l 1
1030 996 m 1
 1030 -2 l 1
 720 -2 l 1
 720 906 l 1
 810 906 970 956 1030 996 c 1
62 392 m 1
 1210 392 l 1
 1210 374 l 1
 30 374 l 1
 310 774 620 1200 660 1500 c 1
 996 1500 l 1
 958 1160 344 780 62 392 c 1
EndSplineSet
EndChar

StartChar: fj.lig
Encoding: 65539 -1 343
GlifName: fj.lig
Width: 1239
VWidth: 2309
Flags: HMW
LayerCount: 2
Fore
SplineSet
39 18 m 1
 674 18 l 1
 674 0 l 1
 39 0 l 1
 39 18 l 1
1084 -24 m 2
 1084 -286 930 -520 650 -520 c 0
 468 -520 344 -421 344 -287 c 0
 344 -185 418 -118 508 -118 c 0
 588 -118 670 -166 670 -266 c 0
 670 -365 598 -418 503 -418 c 0
 450 -418 407 -395 388 -374 c 5
 414 -434 502 -499 630 -499 c 0
 840 -499 804 -214 804 40 c 2
 804 902 l 1
 39 902 l 1
 39 920 l 1
 1084 920 l 1
 1084 -24 l 2
1033 1386 m 1
 1012 1429 928 1500 763 1500 c 0
 555 1500 489 1334 489 1080 c 2
 489 0 l 1
 219 0 l 1
 219 1024 l 2
 219 1316 413 1520 763 1520 c 0
 975 1520 1089 1408 1089 1284 c 0
 1089 1182 1025 1120 935 1120 c 0
 855 1120 773 1169 773 1269 c 0
 773 1366 847 1420 927 1420 c 0
 984 1420 1012 1404 1033 1386 c 1
EndSplineSet
Ligature2: "'liga' Standard Ligatures lookup 0-1" f j
LCarets2: 1 0
EndChar

StartChar: uni2116
Encoding: 8470 8470 344
GlifName: uni2116
Width: 2303
Flags: HW
LayerCount: 2
Fore
SplineSet
1742 1140 m 0
 1742 912 1783 774 1881 774 c 0
 1979 774 2019 912 2019 1140 c 0
 2019 1368 1979 1505 1881 1505 c 0
 1783 1505 1742 1368 1742 1140 c 0
1513 1140 m 0
 1513 1390 1669 1520 1881 1520 c 0
 2093 1520 2249 1390 2249 1140 c 0
 2249 890 2093 760 1881 760 c 0
 1669 760 1513 890 1513 1140 c 0
EndSplineSet
Refer: 85 45 N 1 0 0 1 1521 80 2
Refer: 25 78 N 1 0 0 1 0 0 2
EndChar

StartChar: Euro
Encoding: 8364 8364 345
Width: 1449
Flags: HW
LayerCount: 2
Fore
SplineSet
1302 1312 m 1
 1263 1389 1136 1496 958 1496 c 0
 670 1496 580 1138 580 750 c 0
 580 322 692 14 920 14 c 0
 1116 14 1266 173 1316 356 c 1
 1336 356 l 1
 1284 162 1128 -20 866 -20 c 0
 514 -20 220 290 220 750 c 0
 220 1170 486 1520 918 1520 c 0
 1192 1520 1360 1346 1360 1212 c 0
 1360 1100 1286 1038 1196 1038 c 0
 1116 1038 1032 1090 1032 1200 c 0
 1032 1300 1108 1360 1196 1360 c 0
 1247 1360 1287 1331 1302 1312 c 1
EndSplineSet
Refer: 88 61 N 1 0 0 1 -60 -140 2
EndChar

